/* C:\Users\yuri\source\repos\Midistyler\MidiAranger\MidiAranger.Android\Source\8BEATPOP.STY (10.02.1999 20:16:24)
   StartOffset(h): 00000000, EndOffset(h): 00001C0B, Length(h): 00001C0C */
namespace MidiAranger.Droid.Source.midiplayer
{
    public class DEBUGDATA
    {
        public static byte[] midifileData = {
    0x4D, 0x54, 0x68, 0x64, 0x00, 0x00, 0x00, 0x06, 0x00, 0x00, 0x00, 0x01,
    0x01, 0xE0, 0x4D, 0x54, 0x72, 0x6B, 0x00, 0x00, 0x17, 0xE3, 0x00, 0xFF,
    0x58, 0x04, 0x04, 0x02, 0x18, 0x08, 0x00, 0xFF, 0x51, 0x03, 0x08, 0xCD,
    0x9B, 0x00, 0xFF, 0x06, 0x04, 0x53, 0x46, 0x46, 0x31, 0x00, 0xFF, 0x03,
    0x0B, 0x38, 0x42, 0x65, 0x61, 0x74, 0x50, 0x6F, 0x70, 0x20, 0x20, 0x20,
    0x00, 0xFF, 0x06, 0x04, 0x53, 0x49, 0x6E, 0x74, 0x00, 0xF0, 0x05, 0x7E,
    0x7F, 0x09, 0x01, 0xF7, 0x37, 0xF0, 0x09, 0x43, 0x10, 0x4C, 0x02, 0x01,
    0x00, 0x01, 0x09, 0xF7, 0x39, 0xF0, 0x08, 0x43, 0x10, 0x4C, 0x30, 0x2E,
    0x05, 0x35, 0xF7, 0x02, 0xF0, 0x08, 0x43, 0x10, 0x4C, 0x30, 0x23, 0x05,
    0x29, 0xF7, 0x02, 0xF0, 0x08, 0x43, 0x10, 0x4C, 0x30, 0x2A, 0x05, 0x35,
    0xF7, 0x03, 0xF0, 0x08, 0x43, 0x10, 0x4C, 0x30, 0x2C, 0x05, 0x35, 0xF7,
    0x51, 0xB5, 0x0A, 0x18, 0x03, 0xB1, 0x0A, 0x27, 0x03, 0xB4, 0x0A, 0x4F,
    0x02, 0xB1, 0x5D, 0x14, 0x03, 0xB4, 0x5D, 0x1E, 0x02, 0xB3, 0x5D, 0x29,
    0x03, 0xB5, 0x5D, 0x19, 0x02, 0xB2, 0x5D, 0x29, 0x03, 0xB1, 0x5B, 0x1D,
    0x02, 0xB4, 0x5B, 0x23, 0x03, 0xB3, 0x5B, 0x1E, 0x02, 0xB5, 0x5B, 0x18,
    0x03, 0xBB, 0x5B, 0x54, 0x02, 0xB9, 0x5B, 0x22, 0x02, 0xB8, 0x5B, 0x22,
    0x03, 0xBA, 0x5B, 0x01, 0x02, 0xB2, 0x5B, 0x1E, 0x02, 0xB4, 0x4A, 0x54,
    0x02, 0xB3, 0x4A, 0x4F, 0x02, 0xB5, 0x4A, 0x54, 0x01, 0xBB, 0x4A, 0x4F,
    0x02, 0xB2, 0x4A, 0x4F, 0x81, 0x19, 0xB1, 0x07, 0x5A, 0x03, 0xB2, 0x07,
    0x5A, 0x03, 0xB3, 0x07, 0x5A, 0x03, 0xB4, 0x07, 0x52, 0x02, 0xB5, 0x07,
    0x50, 0x04, 0xB8, 0x07, 0x4D, 0x06, 0xBA, 0x07, 0x50, 0x03, 0xBB, 0x07,
    0x4E, 0x36, 0xB8, 0x00, 0x7F, 0x01, 0xB8, 0x20, 0x00, 0x83, 0x5F, 0xC8,
    0x00, 0x00, 0xC9, 0x00, 0x00, 0xCA, 0x21, 0x00, 0xCC, 0x30, 0x00, 0xCB,
    0x33, 0x00, 0xC4, 0x19, 0x00, 0xC5, 0x1B, 0x00, 0xC3, 0x04, 0x00, 0xC2,
    0x04, 0x00, 0xC1, 0x04, 0x87, 0x40, 0xFF, 0x06, 0x06, 0x4D, 0x61, 0x69,
    0x6E, 0x20, 0x41, 0x01, 0x91, 0x24, 0x6F, 0x00, 0x99, 0x23, 0x48, 0x00,
    0x99, 0x2A, 0x47, 0x00, 0x9A, 0x18, 0x62, 0x0E, 0x89, 0x23, 0x40, 0x00,
    0x89, 0x2A, 0x40, 0x01, 0x93, 0x38, 0x4F, 0x14, 0x93, 0x3D, 0x4F, 0x14,
    0x93, 0x40, 0x57, 0x81, 0x1F, 0x81, 0x24, 0x40, 0x1A, 0x91, 0x24, 0x77,
    0x00, 0x99, 0x2A, 0x3F, 0x0E, 0x89, 0x2A, 0x40, 0x81, 0x48, 0x81, 0x24,
    0x40, 0x00, 0x8A, 0x18, 0x40, 0x15, 0x95, 0x3B, 0x3D, 0x00, 0x95, 0x40,
    0x47, 0x00, 0x95, 0x43, 0x3E, 0x05, 0x99, 0x25, 0x56, 0x00, 0x99, 0x2A,
    0x3C, 0x0E, 0x89, 0x25, 0x40, 0x00, 0x89, 0x2A, 0x40, 0x01, 0x91, 0x30,
    0x6C, 0x00, 0x92, 0x39, 0x4F, 0x00, 0x92, 0x3C, 0x57, 0x54, 0x85, 0x43,
    0x2C, 0x00, 0x85, 0x3B, 0x27, 0x0F, 0x85, 0x40, 0x2E, 0x73, 0x82, 0x39,
    0x40, 0x00, 0x82, 0x3C, 0x40, 0x0B, 0x99, 0x23, 0x3E, 0x00, 0x99, 0x2A,
    0x41, 0x00, 0x9A, 0x18, 0x62, 0x0E, 0x89, 0x23, 0x40, 0x00, 0x89, 0x2A,
    0x40, 0x01, 0x92, 0x39, 0x4F, 0x00, 0x92, 0x40, 0x57, 0x4F, 0x8A, 0x18,
    0x40, 0x81, 0x12, 0x9A, 0x18, 0x64, 0x00, 0x99, 0x23, 0x4A, 0x00, 0x99,
    0x2A, 0x3E, 0x0E, 0x89, 0x23, 0x40, 0x00, 0x89, 0x2A, 0x40, 0x81, 0x57,
    0x82, 0x39, 0x40, 0x0B, 0x92, 0x39, 0x60, 0x00, 0x92, 0x3C, 0x60, 0x00,
    0x99, 0x2A, 0x36, 0x0E, 0x89, 0x2A, 0x40, 0x81, 0x62, 0x99, 0x25, 0x57,
    0x00, 0x99, 0x2A, 0x39, 0x0E, 0x8A, 0x18, 0x40, 0x00, 0x89, 0x25, 0x40,
    0x00, 0x89, 0x2A, 0x40, 0x81, 0x62, 0x99, 0x2A, 0x36, 0x0E, 0x89, 0x2A,
    0x40, 0x5F, 0x82, 0x40, 0x40, 0x28, 0x83, 0x40, 0x40, 0x41, 0x82, 0x3C,
    0x40, 0x00, 0x82, 0x39, 0x40, 0x0F, 0x83, 0x3D, 0x40, 0x00, 0x81, 0x30,
    0x40, 0x00, 0x83, 0x38, 0x40, 0x0B, 0x92, 0x39, 0x60, 0x00, 0x92, 0x3C,
    0x5A, 0x00, 0x92, 0x40, 0x5A, 0x00, 0x93, 0x38, 0x60, 0x00, 0x93, 0x3D,
    0x5A, 0x00, 0x93, 0x40, 0x5A, 0x00, 0x99, 0x23, 0x49, 0x00, 0x99, 0x2A,
    0x3E, 0x00, 0x9A, 0x18, 0x69, 0x0E, 0x89, 0x23, 0x40, 0x00, 0x89, 0x2A,
    0x40, 0x81, 0x62, 0x99, 0x2A, 0x37, 0x0E, 0x89, 0x2A, 0x40, 0x81, 0x48,
    0x8A, 0x18, 0x40, 0x15, 0x95, 0x3B, 0x49, 0x00, 0x95, 0x43, 0x53, 0x05,
    0x95, 0x40, 0x34, 0x00, 0x99, 0x25, 0x58, 0x00, 0x99, 0x2A, 0x3A, 0x0E,
    0x89, 0x25, 0x40, 0x00, 0x89, 0x2A, 0x40, 0x55, 0x85, 0x3B, 0x27, 0x14,
    0x85, 0x40, 0x2E, 0x00, 0x85, 0x43, 0x2C, 0x5F, 0x82, 0x3C, 0x40, 0x00,
    0x83, 0x40, 0x40, 0x00, 0x83, 0x3D, 0x40, 0x00, 0x82, 0x40, 0x40, 0x1A,
    0x92, 0x3C, 0x60, 0x00, 0x92, 0x40, 0x65, 0x00, 0x93, 0x3D, 0x60, 0x00,
    0x93, 0x40, 0x65, 0x00, 0x99, 0x23, 0x42, 0x00, 0x99, 0x2A, 0x3E, 0x00,
    0x9A, 0x18, 0x64, 0x0E, 0x89, 0x23, 0x40, 0x00, 0x89, 0x2A, 0x40, 0x3C,
    0x8A, 0x18, 0x40, 0x81, 0x26, 0x9A, 0x18, 0x69, 0x00, 0x99, 0x23, 0x48,
    0x00, 0x99, 0x2A, 0x41, 0x0E, 0x89, 0x23, 0x40, 0x00, 0x89, 0x2A, 0x40,
    0x81, 0x62, 0x99, 0x2A, 0x39, 0x0E, 0x89, 0x2A, 0x40, 0x81, 0x62, 0x99,
    0x25, 0x5B, 0x00, 0x99, 0x2A, 0x42, 0x0E, 0x8A, 0x18, 0x40, 0x00, 0x89,
    0x25, 0x40, 0x00, 0x89, 0x2A, 0x40, 0x81, 0x62, 0x99, 0x2A, 0x3E, 0x0E,
    0x89, 0x2A, 0x40, 0x81, 0x48, 0x82, 0x3C, 0x40, 0x00, 0x83, 0x40, 0x40,
    0x00, 0x83, 0x3D, 0x40, 0x00, 0x82, 0x40, 0x40, 0x00, 0x83, 0x38, 0x40,
    0x00, 0x82, 0x39, 0x40, 0x19, 0xFF, 0x06, 0x0A, 0x46, 0x69, 0x6C, 0x6C,
    0x20, 0x49, 0x6E, 0x20, 0x41, 0x41, 0x01, 0x92, 0x39, 0x57, 0x00, 0x92,
    0x3C, 0x57, 0x00, 0x92, 0x40, 0x5B, 0x00, 0x99, 0x23, 0x48, 0x00, 0x99,
    0x2A, 0x3E, 0x00, 0x9A, 0x18, 0x62, 0x0E, 0x89, 0x23, 0x40, 0x00, 0x89,
    0x2A, 0x40, 0x81, 0x5D, 0x95, 0x40, 0x25, 0x00, 0x95, 0x43, 0x22, 0x05,
    0x95, 0x3B, 0x15, 0x00, 0x93, 0x38, 0x60, 0x00, 0x99, 0x2A, 0x37, 0x0E,
    0x89, 0x2A, 0x40, 0x81, 0x52, 0x85, 0x40, 0x2E, 0x00, 0x85, 0x43, 0x2C,
    0x00, 0x85, 0x3B, 0x29, 0x06, 0x95, 0x43, 0x3E, 0x05, 0x95, 0x40, 0x45,
    0x05, 0x95, 0x3B, 0x35, 0x00, 0x99, 0x25, 0x58, 0x00, 0x99, 0x2A, 0x3A,
    0x0E, 0x89, 0x25, 0x40, 0x00, 0x89, 0x2A, 0x40, 0x50, 0x85, 0x43, 0x2C,
    0x0A, 0x85, 0x3B, 0x27, 0x0F, 0x85, 0x40, 0x2E, 0x5F, 0x8A, 0x18, 0x40,
    0x1A, 0x93, 0x3D, 0x60, 0x00, 0x99, 0x23, 0x3E, 0x00, 0x99, 0x2A, 0x3E,
    0x00, 0x9A, 0x18, 0x62, 0x0E, 0x89, 0x23, 0x40, 0x00, 0x89, 0x2A, 0x40,
    0x50, 0x8A, 0x18, 0x40, 0x81, 0x12, 0x9A, 0x18, 0x64, 0x00, 0x99, 0x23,
    0x4A, 0x00, 0x99, 0x2A, 0x41, 0x0E, 0x89, 0x23, 0x40, 0x00, 0x89, 0x2A,
    0x40, 0x81, 0x48, 0x82, 0x39, 0x40, 0x00, 0x82, 0x3C, 0x40, 0x1A, 0x92,
    0x39, 0x59, 0x00, 0x92, 0x3C, 0x61, 0x00, 0x93, 0x40, 0x65, 0x00, 0x99,
    0x2A, 0x39, 0x0E, 0x89, 0x2A, 0x40, 0x3C, 0x82, 0x39, 0x40, 0x00, 0x82,
    0x3C, 0x40, 0x81, 0x07, 0x8A, 0x18, 0x40, 0x1F, 0x92, 0x39, 0x5A, 0x00,
    0x92, 0x3C, 0x5A, 0x00, 0x99, 0x25, 0x5F, 0x00, 0x99, 0x2A, 0x42, 0x00,
    0x9A, 0x18, 0x69, 0x0E, 0x89, 0x25, 0x40, 0x00, 0x89, 0x2A, 0x40, 0x81,
    0x62, 0x99, 0x2E, 0x39, 0x0E, 0x89, 0x2E, 0x40, 0x81, 0x48, 0x83, 0x3D,
    0x40, 0x00, 0x83, 0x40, 0x40, 0x00, 0x82, 0x3C, 0x40, 0x00, 0x82, 0x39,
    0x40, 0x00, 0x8A, 0x18, 0x40, 0x00, 0x83, 0x38, 0x40, 0x00, 0x82, 0x40,
    0x40, 0x19, 0xFF, 0x06, 0x0A, 0x46, 0x69, 0x6C, 0x6C, 0x20, 0x49, 0x6E,
    0x20, 0x41, 0x42, 0x01, 0x91, 0x24, 0x6F, 0x00, 0x93, 0x38, 0x4D, 0x00,
    0x93, 0x3D, 0x4F, 0x00, 0x95, 0x3B, 0x49, 0x00, 0x95, 0x43, 0x53, 0x00,
    0x99, 0x23, 0x49, 0x00, 0x99, 0x2A, 0x47, 0x00, 0x9A, 0x18, 0x69, 0x05,
    0x95, 0x40, 0x34, 0x09, 0x89, 0x23, 0x40, 0x00, 0x89, 0x2A, 0x40, 0x81,
    0x48, 0x8A, 0x18, 0x40, 0x00, 0x81, 0x24, 0x40, 0x1A, 0x91, 0x24, 0x77,
    0x00, 0x99, 0x2E, 0x39, 0x0E, 0x89, 0x2E, 0x40, 0x81, 0x48, 0x81, 0x24,
    0x40, 0x1A, 0x92, 0x39, 0x62, 0x00, 0x92, 0x3C, 0x5C, 0x00, 0x92, 0x40,
    0x61, 0x00, 0x99, 0x25, 0x62, 0x00, 0x99, 0x2A, 0x3C, 0x00, 0x9A, 0x18,
    0x69, 0x0E, 0x89, 0x25, 0x40, 0x00, 0x89, 0x2A, 0x40, 0x81, 0x62, 0x93,
    0x40, 0x57, 0x00, 0x99, 0x23, 0x42, 0x00, 0x99, 0x2A, 0x3C, 0x0E, 0x89,
    0x23, 0x40, 0x00, 0x89, 0x2A, 0x40, 0x81, 0x48, 0x8A, 0x18, 0x40, 0x1A,
    0x99, 0x23, 0x48, 0x00, 0x99, 0x2A, 0x4E, 0x0E, 0x89, 0x23, 0x40, 0x00,
    0x89, 0x2A, 0x40, 0x14, 0x85, 0x3B, 0x27, 0x14, 0x85, 0x43, 0x2C, 0x05,
    0x85, 0x40, 0x2E, 0x81, 0x1B, 0x83, 0x38, 0x40, 0x00, 0x83, 0x40, 0x40,
    0x00, 0x83, 0x3D, 0x40, 0x10, 0x95, 0x40, 0x3C, 0x00, 0x95, 0x43, 0x26,
    0x0A, 0x99, 0x2E, 0x49, 0x00, 0x9A, 0x18, 0x64, 0x05, 0x95, 0x3B, 0x3E,
    0x09, 0x89, 0x2E, 0x40, 0x01, 0x93, 0x38, 0x51, 0x05, 0x93, 0x3D, 0x56,
    0x05, 0x93, 0x40, 0x49, 0x04, 0x85, 0x43, 0x2C, 0x00, 0x85, 0x40, 0x2E,
    0x0F, 0x85, 0x3B, 0x29, 0x1E, 0x8A, 0x18, 0x40, 0x81, 0x21, 0x95, 0x40,
    0x46, 0x00, 0x95, 0x43, 0x3A, 0x05, 0x95, 0x3B, 0x38, 0x00, 0x9A, 0x18,
    0x69, 0x00, 0x99, 0x23, 0x39, 0x00, 0x99, 0x25, 0x62, 0x00, 0x99, 0x2A,
    0x3F, 0x00, 0x99, 0x33, 0x38, 0x0E, 0x89, 0x23, 0x40, 0x00, 0x89, 0x25,
    0x40, 0x00, 0x89, 0x2A, 0x40, 0x00, 0x89, 0x33, 0x40, 0x01, 0x99, 0x35,
    0x41, 0x0E, 0x89, 0x35, 0x40, 0x81, 0x53, 0x99, 0x33, 0x39, 0x0E, 0x89,
    0x33, 0x40, 0x81, 0x3E, 0x83, 0x38, 0x40, 0x0A, 0x8A, 0x18, 0x40, 0x00,
    0x82, 0x3C, 0x40, 0x00, 0x83, 0x3D, 0x40, 0x00, 0x82, 0x39, 0x40, 0x00,
    0x82, 0x40, 0x40, 0x01, 0x99, 0x35, 0x41, 0x04, 0x83, 0x40, 0x40, 0x0A,
    0x89, 0x35, 0x40, 0x0A, 0x85, 0x3B, 0x40, 0x00, 0x85, 0x40, 0x40, 0x00,
    0x85, 0x43, 0x40, 0x00, 0xFF, 0x06, 0x06, 0x4D, 0x61, 0x69, 0x6E, 0x20,
    0x42, 0x01, 0x92, 0x34, 0x5A, 0x00, 0x92, 0x37, 0x60, 0x00, 0x92, 0x3B,
    0x5A, 0x00, 0x99, 0x23, 0x4A, 0x00, 0x99, 0x2A, 0x4D, 0x00, 0x9A, 0x18,
    0x64, 0x00, 0x98, 0x3F, 0x45, 0x00, 0x98, 0x45, 0x3F, 0x04, 0x88, 0x3F,
    0x40, 0x00, 0x88, 0x45, 0x40, 0x01, 0x9B, 0x39, 0x4F, 0x00, 0x9B, 0x48,
    0x27, 0x09, 0x89, 0x2A, 0x40, 0x00, 0x89, 0x23, 0x40, 0x01, 0x93, 0x36,
    0x4F, 0x28, 0x93, 0x3D, 0x57, 0x81, 0x39, 0x98, 0x45, 0x1E, 0x00, 0x99,
    0x2A, 0x45, 0x04, 0x88, 0x45, 0x40, 0x0A, 0x89, 0x2A, 0x40, 0x81, 0x48,
    0x8A, 0x18, 0x40, 0x15, 0x95, 0x3B, 0x3F, 0x00, 0x95, 0x40, 0x49, 0x00,
    0x95, 0x43, 0x40, 0x05, 0x94, 0x40, 0x3D, 0x00, 0x99, 0x25, 0x5F, 0x00,
    0x99, 0x2A, 0x42, 0x00, 0x98, 0x3E, 0x59, 0x00, 0x98, 0x45, 0x34, 0x04,
    0x88, 0x3E, 0x40, 0x00, 0x88, 0x45, 0x40, 0x01, 0x94, 0x39, 0x4F, 0x09,
    0x89, 0x2A, 0x40, 0x00, 0x89, 0x25, 0x40, 0x15, 0x93, 0x39, 0x4F, 0x40,
    0x85, 0x43, 0x2C, 0x00, 0x85, 0x3B, 0x27, 0x0A, 0x85, 0x40, 0x2E, 0x14,
    0x84, 0x40, 0x2F, 0x14, 0x84, 0x39, 0x35, 0x41, 0x82, 0x34, 0x40, 0x00,
    0x82, 0x3B, 0x40, 0x1A, 0x92, 0x34, 0x65, 0x00, 0x92, 0x3B, 0x60, 0x00,
    0x98, 0x3F, 0x45, 0x00, 0x98, 0x45, 0x20, 0x00, 0x99, 0x23, 0x40, 0x00,
    0x99, 0x2A, 0x47, 0x00, 0x9A, 0x18, 0x64, 0x04, 0x88, 0x3F, 0x40, 0x00,
    0x88, 0x45, 0x40, 0x0A, 0x89, 0x23, 0x40, 0x00, 0x89, 0x2A, 0x40, 0x50,
    0x8A, 0x18, 0x40, 0x81, 0x12, 0x9A, 0x18, 0x66, 0x00, 0x99, 0x23, 0x4C,
    0x00, 0x99, 0x2A, 0x44, 0x00, 0x98, 0x3F, 0x45, 0x00, 0x98, 0x45, 0x36,
    0x04, 0x88, 0x3F, 0x40, 0x00, 0x88, 0x45, 0x40, 0x0A, 0x89, 0x2A, 0x40,
    0x00, 0x89, 0x23, 0x40, 0x81, 0x62, 0x98, 0x3E, 0x3E, 0x00, 0x98, 0x45,
    0x15, 0x00, 0x99, 0x2A, 0x3C, 0x04, 0x88, 0x3E, 0x40, 0x00, 0x88, 0x45,
    0x40, 0x0A, 0x89, 0x2A, 0x40, 0x73, 0x83, 0x36, 0x40, 0x6F, 0x94, 0x39,
    0x5B, 0x00, 0x99, 0x25, 0x5C, 0x00, 0x99, 0x2A, 0x3F, 0x00, 0x98, 0x40,
    0x45, 0x00, 0x98, 0x45, 0x31, 0x04, 0x88, 0x40, 0x40, 0x00, 0x88, 0x45,
    0x40, 0x01, 0x94, 0x3C, 0x4D, 0x00, 0x94, 0x40, 0x4D, 0x09, 0x89, 0x25,
    0x40, 0x00, 0x89, 0x2A, 0x40, 0x00, 0x8A, 0x18, 0x40, 0x73, 0x84, 0x39,
    0x3C, 0x14, 0x84, 0x40, 0x3A, 0x00, 0x84, 0x3C, 0x3A, 0x5B, 0x98, 0x40,
    0x45, 0x00, 0x98, 0x45, 0x15, 0x00, 0x99, 0x2A, 0x3C, 0x04, 0x88, 0x40,
    0x40, 0x00, 0x88, 0x45, 0x40, 0x0A, 0x89, 0x2A, 0x40, 0x81, 0x07, 0x83,
    0x3D, 0x40, 0x41, 0x82, 0x3B, 0x40, 0x00, 0x82, 0x34, 0x40, 0x05, 0x8B,
    0x39, 0x38, 0x00, 0x8B, 0x48, 0x38, 0x0A, 0x83, 0x39, 0x40, 0x0B, 0x92,
    0x34, 0x65, 0x00, 0x92, 0x3B, 0x60, 0x00, 0x93, 0x36, 0x60, 0x00, 0x93,
    0x39, 0x60, 0x00, 0x93, 0x3D, 0x65, 0x00, 0x99, 0x23, 0x4B, 0x00, 0x99,
    0x2A, 0x44, 0x00, 0x9A, 0x18, 0x6B, 0x00, 0x98, 0x3F, 0x45, 0x00, 0x98,
    0x45, 0x36, 0x04, 0x88, 0x3F, 0x40, 0x00, 0x88, 0x45, 0x40, 0x01, 0x9B,
    0x39, 0x4F, 0x00, 0x9B, 0x48, 0x27, 0x09, 0x89, 0x2A, 0x40, 0x00, 0x89,
    0x23, 0x40, 0x81, 0x62, 0x98, 0x45, 0x16, 0x00, 0x99, 0x2A, 0x3D, 0x04,
    0x88, 0x45, 0x40, 0x0A, 0x89, 0x2A, 0x40, 0x81, 0x48, 0x8A, 0x18, 0x40,
    0x00, 0x82, 0x37, 0x40, 0x15, 0x95, 0x3B, 0x4B, 0x00, 0x95, 0x43, 0x55,
    0x05, 0x95, 0x40, 0x36, 0x00, 0x94, 0x39, 0x44, 0x00, 0x99, 0x25, 0x5F,
    0x00, 0x99, 0x2A, 0x40, 0x00, 0x98, 0x3E, 0x58, 0x00, 0x98, 0x45, 0x32,
    0x04, 0x88, 0x3E, 0x40, 0x00, 0x88, 0x45, 0x40, 0x01, 0x94, 0x40, 0x39,
    0x09, 0x89, 0x2A, 0x40, 0x00, 0x89, 0x25, 0x40, 0x01, 0x92, 0x37, 0x60,
    0x54, 0x85, 0x3B, 0x27, 0x14, 0x85, 0x43, 0x2C, 0x00, 0x85, 0x40, 0x2E,
    0x0F, 0x84, 0x40, 0x2F, 0x05, 0x84, 0x39, 0x35, 0x65, 0x98, 0x3F, 0x45,
    0x00, 0x98, 0x45, 0x1D, 0x00, 0x99, 0x23, 0x44, 0x00, 0x99, 0x2A, 0x44,
    0x00, 0x9A, 0x18, 0x66, 0x04, 0x88, 0x3F, 0x40, 0x00, 0x88, 0x45, 0x40,
    0x0A, 0x89, 0x23, 0x40, 0x00, 0x89, 0x2A, 0x40, 0x3C, 0x8A, 0x18, 0x40,
    0x81, 0x0C, 0x83, 0x3D, 0x40, 0x1A, 0x93, 0x3D, 0x65, 0x00, 0x9A, 0x18,
    0x6B, 0x00, 0x99, 0x23, 0x4A, 0x00, 0x99, 0x2A, 0x47, 0x00, 0x98, 0x3F,
    0x45, 0x00, 0x98, 0x45, 0x39, 0x04, 0x88, 0x3F, 0x40, 0x00, 0x88, 0x45,
    0x40, 0x0A, 0x89, 0x2A, 0x40, 0x00, 0x89, 0x23, 0x40, 0x81, 0x62, 0x98,
    0x3E, 0x3D, 0x00, 0x98, 0x45, 0x18, 0x00, 0x99, 0x2A, 0x3F, 0x04, 0x88,
    0x3E, 0x40, 0x00, 0x88, 0x45, 0x40, 0x0A, 0x89, 0x2A, 0x40, 0x81, 0x62,
    0x94, 0x39, 0x54, 0x00, 0x94, 0x3C, 0x57, 0x00, 0x94, 0x40, 0x57, 0x00,
    0x99, 0x25, 0x5F, 0x00, 0x99, 0x2A, 0x48, 0x00, 0x98, 0x40, 0x36, 0x00,
    0x98, 0x45, 0x3A, 0x04, 0x88, 0x40, 0x40, 0x00, 0x88, 0x45, 0x40, 0x0A,
    0x89, 0x2A, 0x40, 0x00, 0x8A, 0x18, 0x40, 0x00, 0x89, 0x25, 0x40, 0x73,
    0x84, 0x39, 0x3C, 0x19, 0x84, 0x3C, 0x3A, 0x00, 0x84, 0x40, 0x3A, 0x3C,
    0x82, 0x34, 0x40, 0x1A, 0x92, 0x34, 0x5A, 0x00, 0x98, 0x40, 0x2F, 0x00,
    0x98, 0x45, 0x1D, 0x00, 0x99, 0x2A, 0x44, 0x04, 0x88, 0x40, 0x40, 0x00,
    0x88, 0x45, 0x40, 0x0A, 0x89, 0x2A, 0x40, 0x5F, 0x82, 0x37, 0x40, 0x69,
    0x82, 0x34, 0x40, 0x00, 0x83, 0x3D, 0x40, 0x00, 0x82, 0x3B, 0x40, 0x00,
    0x83, 0x39, 0x40, 0x05, 0x83, 0x36, 0x40, 0x00, 0x8B, 0x48, 0x38, 0x00,
    0x8B, 0x39, 0x38, 0x14, 0xFF, 0x06, 0x0A, 0x46, 0x69, 0x6C, 0x6C, 0x20,
    0x49, 0x6E, 0x20, 0x42, 0x41, 0x01, 0x92, 0x34, 0x59, 0x00, 0x92, 0x3B,
    0x54, 0x00, 0x93, 0x36, 0x60, 0x00, 0x93, 0x39, 0x60, 0x00, 0x99, 0x23,
    0x4B, 0x00, 0x99, 0x2A, 0x3D, 0x00, 0x9A, 0x18, 0x6B, 0x00, 0x98, 0x3F,
    0x45, 0x00, 0x98, 0x45, 0x36, 0x04, 0x88, 0x3F, 0x40, 0x00, 0x88, 0x45,
    0x40, 0x01, 0x9B, 0x39, 0x4F, 0x00, 0x9B, 0x48, 0x1E, 0x09, 0x89, 0x23,
    0x40, 0x00, 0x89, 0x2A, 0x40, 0x01, 0x92, 0x37, 0x57, 0x81, 0x47, 0x83,
    0x39, 0x40, 0x05, 0x83, 0x36, 0x40, 0x0A, 0x82, 0x37, 0x40, 0x0B, 0x98,
    0x45, 0x16, 0x00, 0x99, 0x2A, 0x35, 0x04, 0x88, 0x45, 0x40, 0x0A, 0x89,
    0x2A, 0x40, 0x81, 0x48, 0x82, 0x3B, 0x40, 0x00, 0x8A, 0x18, 0x40, 0x00,
    0x82, 0x34, 0x40, 0x05, 0x8B, 0x39, 0x38, 0x00, 0x8B, 0x48, 0x38, 0x10,
    0x95, 0x3B, 0x4B, 0x05, 0x95, 0x40, 0x36, 0x00, 0x95, 0x43, 0x55, 0x00,
    0x93, 0x36, 0x60, 0x00, 0x93, 0x39, 0x60, 0x00, 0x93, 0x3D, 0x65, 0x00,
    0x94, 0x39, 0x51, 0x00, 0x92, 0x34, 0x65, 0x00, 0x92, 0x3B, 0x60, 0x00,
    0x98, 0x3E, 0x5B, 0x00, 0x98, 0x45, 0x32, 0x04, 0x88, 0x3E, 0x40, 0x00,
    0x88, 0x45, 0x40, 0x01, 0x9B, 0x39, 0x4D, 0x00, 0x9B, 0x48, 0x2D, 0x0A,
    0x92, 0x37, 0x60, 0x14, 0x94, 0x3C, 0x46, 0x05, 0x99, 0x3B, 0x46, 0x05,
    0x99, 0x2E, 0x37, 0x00, 0x99, 0x33, 0x21, 0x09, 0x89, 0x3B, 0x40, 0x05,
    0x89, 0x33, 0x40, 0x00, 0x89, 0x2E, 0x40, 0x28, 0x85, 0x3B, 0x27, 0x14,
    0x85, 0x40, 0x2E, 0x05, 0x85, 0x43, 0x2C, 0x74, 0x99, 0x23, 0x44, 0x00,
    0x9A, 0x18, 0x66, 0x00, 0x98, 0x3F, 0x48, 0x00, 0x98, 0x45, 0x1D, 0x04,
    0x88, 0x3F, 0x40, 0x00, 0x88, 0x45, 0x40, 0x0A, 0x89, 0x23, 0x40, 0x3C,
    0x8A, 0x18, 0x40, 0x81, 0x11, 0x8B, 0x48, 0x38, 0x05, 0x84, 0x39, 0x24,
    0x05, 0x84, 0x3C, 0x22, 0x06, 0x94, 0x3C, 0x3E, 0x05, 0x94, 0x39, 0x3D,
    0x00, 0x94, 0x40, 0x38, 0x00, 0x98, 0x3E, 0x3B, 0x00, 0x98, 0x45, 0x3B,
    0x00, 0x9A, 0x18, 0x5C, 0x00, 0x99, 0x23, 0x4A, 0x04, 0x88, 0x3E, 0x40,
    0x00, 0x88, 0x45, 0x40, 0x01, 0x9B, 0x48, 0x4A, 0x09, 0x89, 0x23, 0x40,
    0x15, 0x99, 0x33, 0x34, 0x05, 0x99, 0x2E, 0x41, 0x04, 0x89, 0x33, 0x40,
    0x01, 0x99, 0x3B, 0x53, 0x09, 0x89, 0x2E, 0x40, 0x00, 0x89, 0x3B, 0x40,
    0x2D, 0x83, 0x36, 0x40, 0x1F, 0x98, 0x3E, 0x41, 0x04, 0x88, 0x3E, 0x40,
    0x41, 0x8A, 0x18, 0x40, 0x0F, 0x82, 0x3B, 0x40, 0x0F, 0x84, 0x3C, 0x22,
    0x00, 0x84, 0x39, 0x24, 0x00, 0x84, 0x40, 0x1E, 0x06, 0x94, 0x39, 0x3A,
    0x05, 0x94, 0x3C, 0x44, 0x00, 0x93, 0x36, 0x62, 0x00, 0x92, 0x3B, 0x60,
    0x00, 0x98, 0x3E, 0x45, 0x00, 0x98, 0x45, 0x1D, 0x00, 0x9A, 0x18, 0x5A,
    0x04, 0x88, 0x3E, 0x40, 0x00, 0x88, 0x45, 0x40, 0x0B, 0x94, 0x40, 0x46,
    0x05, 0x95, 0x40, 0x3D, 0x00, 0x95, 0x43, 0x46, 0x81, 0x29, 0x84, 0x40,
    0x1E, 0x0A, 0x8A, 0x18, 0x40, 0x0F, 0x82, 0x34, 0x40, 0x00, 0x83, 0x39,
    0x40, 0x05, 0x83, 0x36, 0x40, 0x00, 0x8B, 0x48, 0x38, 0x00, 0x8B, 0x39,
    0x38, 0x0A, 0x84, 0x3C, 0x26, 0x00, 0x84, 0x39, 0x23, 0x00, 0x82, 0x37,
    0x40, 0x06, 0x94, 0x39, 0x41, 0x05, 0x94, 0x3C, 0x4A, 0x00, 0x93, 0x36,
    0x65, 0x00, 0x93, 0x39, 0x66, 0x00, 0x92, 0x34, 0x65, 0x00, 0x9A, 0x18,
    0x65, 0x00, 0x99, 0x23, 0x4C, 0x00, 0x98, 0x3F, 0x39, 0x00, 0x98, 0x45,
    0x45, 0x04, 0x88, 0x3F, 0x40, 0x00, 0x88, 0x45, 0x40, 0x01, 0x9B, 0x39,
    0x56, 0x00, 0x9B, 0x48, 0x4C, 0x09, 0x85, 0x43, 0x2C, 0x00, 0x89, 0x23,
    0x40, 0x00, 0x85, 0x40, 0x2E, 0x01, 0x92, 0x37, 0x60, 0x05, 0x95, 0x40,
    0x4D, 0x00, 0x95, 0x43, 0x50, 0x05, 0x95, 0x3B, 0x49, 0x0F, 0x99, 0x3B,
    0x62, 0x05, 0x99, 0x2E, 0x4F, 0x00, 0x99, 0x33, 0x2B, 0x09, 0x89, 0x3B,
    0x40, 0x00, 0x89, 0x33, 0x40, 0x05, 0x89, 0x2E, 0x40, 0x81, 0x0C, 0x8A,
    0x18, 0x40, 0x0F, 0x83, 0x39, 0x40, 0x00, 0x83, 0x3D, 0x40, 0x05, 0x83,
    0x36, 0x40, 0x0A, 0x84, 0x39, 0x2A, 0x00, 0x84, 0x3C, 0x28, 0x06, 0x94,
    0x39, 0x51, 0x05, 0x94, 0x3C, 0x56, 0x00, 0x93, 0x36, 0x6F, 0x00, 0x93,
    0x39, 0x70, 0x00, 0x93, 0x3D, 0x73, 0x00, 0x99, 0x23, 0x32, 0x00, 0x9A,
    0x18, 0x6D, 0x00, 0x98, 0x40, 0x2F, 0x00, 0x98, 0x45, 0x26, 0x04, 0x88,
    0x40, 0x40, 0x00, 0x88, 0x45, 0x40, 0x05, 0x85, 0x3B, 0x29, 0x05, 0x85,
    0x43, 0x2C, 0x00, 0x85, 0x40, 0x2E, 0x00, 0x89, 0x23, 0x40, 0x01, 0x94,
    0x40, 0x46, 0x05, 0x95, 0x40, 0x61, 0x00, 0x95, 0x43, 0x56, 0x05, 0x95,
    0x3B, 0x65, 0x14, 0x99, 0x2A, 0x54, 0x0E, 0x89, 0x2A, 0x40, 0x73, 0x82,
    0x34, 0x40, 0x0F, 0x82, 0x37, 0x40, 0x00, 0x84, 0x40, 0x1E, 0x00, 0x85,
    0x3B, 0x29, 0x05, 0x82, 0x3B, 0x40, 0x05, 0x8A, 0x18, 0x40, 0x0A, 0x85,
    0x43, 0x2C, 0x00, 0x85, 0x40, 0x2E, 0x05, 0x83, 0x39, 0x40, 0x00, 0x83,
    0x3D, 0x40, 0x01, 0x99, 0x3B, 0x62, 0x04, 0x83, 0x36, 0x40, 0x00, 0x8B,
    0x48, 0x38, 0x00, 0x8B, 0x39, 0x38, 0x0A, 0x89, 0x3B, 0x40, 0x0A, 0x84,
    0x39, 0x40, 0x00, 0x84, 0x3C, 0x40, 0x00, 0xFF, 0x06, 0x0A, 0x46, 0x69,
    0x6C, 0x6C, 0x20, 0x49, 0x6E, 0x20, 0x42, 0x42, 0x01, 0x91, 0x24, 0x74,
    0x00, 0x99, 0x23, 0x4A, 0x00, 0x99, 0x2A, 0x4D, 0x00, 0x9A, 0x18, 0x64,
    0x00, 0x98, 0x3F, 0x45, 0x00, 0x98, 0x45, 0x3F, 0x04, 0x88, 0x3F, 0x40,
    0x00, 0x88, 0x45, 0x40, 0x01, 0x9B, 0x39, 0x4F, 0x00, 0x9B, 0x48, 0x1E,
    0x09, 0x89, 0x23, 0x40, 0x00, 0x89, 0x2A, 0x40, 0x01, 0x93, 0x36, 0x4F,
    0x00, 0x93, 0x3D, 0x57, 0x81, 0x47, 0x81, 0x24, 0x40, 0x05, 0x8B, 0x48,
    0x38, 0x15, 0x91, 0x24, 0x7C, 0x00, 0x98, 0x45, 0x1E, 0x00, 0x99, 0x2A,
    0x45, 0x04, 0x88, 0x45, 0x40, 0x01, 0x9B, 0x45, 0x29, 0x09, 0x89, 0x2A,
    0x40, 0x15, 0x93, 0x39, 0x4F, 0x81, 0x33, 0x81, 0x24, 0x40, 0x00, 0x8A,
    0x18, 0x40, 0x15, 0x95, 0x3B, 0x3F, 0x00, 0x95, 0x40, 0x49, 0x00, 0x95,
    0x43, 0x40, 0x05, 0x92, 0x34, 0x5A, 0x00, 0x92, 0x37, 0x60, 0x00, 0x92,
    0x3B, 0x5A, 0x00, 0x99, 0x25, 0x5B, 0x00, 0x99, 0x2A, 0x4D, 0x00, 0x98,
    0x3E, 0x59, 0x00, 0x98, 0x45, 0x34, 0x04, 0x88, 0x3E, 0x40, 0x00, 0x88,
    0x45, 0x40, 0x01, 0x94, 0x39, 0x34, 0x00, 0x94, 0x3C, 0x3F, 0x09, 0x89,
    0x2A, 0x40, 0x00, 0x89, 0x25, 0x40, 0x55, 0x85, 0x43, 0x2C, 0x00, 0x85,
    0x3B, 0x27, 0x0A, 0x85, 0x40, 0x2E, 0x73, 0x83, 0x36, 0x40, 0x05, 0x84,
    0x39, 0x28, 0x00, 0x84, 0x3C, 0x26, 0x06, 0x94, 0x39, 0x4D, 0x05, 0x94,
    0x3C, 0x49, 0x00, 0x98, 0x3F, 0x45, 0x00, 0x98, 0x45, 0x20, 0x00, 0x99,
    0x23, 0x40, 0x00, 0x99, 0x2E, 0x40, 0x00, 0x9A, 0x18, 0x64, 0x04, 0x88,
    0x3F, 0x40, 0x00, 0x88, 0x45, 0x40, 0x0A, 0x89, 0x23, 0x40, 0x00, 0x89,
    0x2E, 0x40, 0x01, 0x94, 0x40, 0x3E, 0x00, 0x93, 0x36, 0x4F, 0x4F, 0x8A,
    0x18, 0x40, 0x81, 0x12, 0x9A, 0x18, 0x6B, 0x00, 0x99, 0x23, 0x4C, 0x00,
    0x99, 0x2A, 0x4D, 0x00, 0x98, 0x3F, 0x45, 0x00, 0x98, 0x45, 0x36, 0x04,
    0x88, 0x3F, 0x40, 0x00, 0x88, 0x45, 0x40, 0x0A, 0x89, 0x23, 0x40, 0x00,
    0x89, 0x2A, 0x40, 0x74, 0x98, 0x3E, 0x38, 0x04, 0x88, 0x3E, 0x40, 0x3C,
    0x84, 0x3C, 0x31, 0x00, 0x84, 0x39, 0x2D, 0x14, 0x82, 0x34, 0x40, 0x00,
    0x82, 0x3B, 0x40, 0x00, 0x84, 0x40, 0x2E, 0x1A, 0x92, 0x34, 0x65, 0x00,
    0x92, 0x3B, 0x60, 0x00, 0x94, 0x39, 0x37, 0x00, 0x94, 0x3C, 0x32, 0x00,
    0x94, 0x40, 0x40, 0x00, 0x98, 0x3E, 0x3B, 0x00, 0x98, 0x45, 0x15, 0x00,
    0x99, 0x2A, 0x45, 0x00, 0x99, 0x33, 0x36, 0x04, 0x88, 0x3E, 0x40, 0x00,
    0x88, 0x45, 0x40, 0x0A, 0x89, 0x33, 0x40, 0x00, 0x89, 0x2A, 0x40, 0x81,
    0x57, 0x84, 0x39, 0x2C, 0x00, 0x84, 0x3C, 0x30, 0x00, 0x84, 0x40, 0x2E,
    0x00, 0x8A, 0x18, 0x40, 0x06, 0x94, 0x3C, 0x30, 0x00, 0x95, 0x40, 0x4C,
    0x00, 0x95, 0x43, 0x3B, 0x05, 0x95, 0x3B, 0x40, 0x00, 0x94, 0x39, 0x3F,
    0x00, 0x99, 0x25, 0x5D, 0x00, 0x99, 0x33, 0x27, 0x00, 0x98, 0x3E, 0x48,
    0x00, 0x98, 0x45, 0x31, 0x04, 0x88, 0x3E, 0x40, 0x00, 0x88, 0x45, 0x40,
    0x0A, 0x89, 0x25, 0x40, 0x00, 0x89, 0x33, 0x40, 0x01, 0x99, 0x3B, 0x46,
    0x0E, 0x89, 0x3B, 0x40, 0x41, 0x85, 0x43, 0x2C, 0x05, 0x85, 0x3B, 0x29,
    0x0F, 0x85, 0x40, 0x2E, 0x64, 0x82, 0x37, 0x40, 0x0F, 0x84, 0x3C, 0x21,
    0x00, 0x84, 0x39, 0x23, 0x06, 0x94, 0x39, 0x4A, 0x00, 0x94, 0x3C, 0x47,
    0x00, 0x94, 0x40, 0x45, 0x05, 0x91, 0x24, 0x7C, 0x00, 0x99, 0x2C, 0x40,
    0x00, 0x98, 0x40, 0x45, 0x00, 0x98, 0x45, 0x15, 0x04, 0x88, 0x40, 0x40,
    0x00, 0x88, 0x45, 0x40, 0x0A, 0x89, 0x2C, 0x40, 0x5F, 0x83, 0x3D, 0x40,
    0x69, 0x82, 0x3B, 0x40, 0x00, 0x82, 0x34, 0x40, 0x00, 0x81, 0x24, 0x40,
    0x01, 0x99, 0x3B, 0x2A, 0x04, 0x8B, 0x39, 0x38, 0x00, 0x8B, 0x45, 0x38,
    0x0A, 0x83, 0x36, 0x40, 0x00, 0x89, 0x3B, 0x40, 0x00, 0x83, 0x39, 0x40,
    0x0A, 0x84, 0x39, 0x40, 0x00, 0x84, 0x3C, 0x40, 0x00, 0x84, 0x40, 0x40,
    0x00, 0xFF, 0x06, 0x07, 0x49, 0x6E, 0x74, 0x72, 0x6F, 0x20, 0x42, 0x01,
    0x99, 0x2A, 0x48, 0x0E, 0x89, 0x2A, 0x40, 0x06, 0x93, 0x41, 0x6B, 0x00,
    0x93, 0x45, 0x73, 0x14, 0x93, 0x48, 0x73, 0x00, 0x93, 0x4C, 0x73, 0x82,
    0x5D, 0x83, 0x4C, 0x40, 0x55, 0x83, 0x45, 0x40, 0x00, 0x83, 0x48, 0x40,
    0x00, 0x83, 0x41, 0x40, 0x06, 0x99, 0x2A, 0x3D, 0x0E, 0x89, 0x2A, 0x40,
    0x06, 0x93, 0x40, 0x72, 0x00, 0x93, 0x41, 0x72, 0x00, 0x93, 0x45, 0x6B,
    0x14, 0x93, 0x48, 0x72, 0x83, 0x32, 0x83, 0x40, 0x40, 0x00, 0x83, 0x48,
    0x40, 0x00, 0x83, 0x45, 0x40, 0x00, 0x83, 0x41, 0x40, 0x06, 0x93, 0x3C,
    0x72, 0x00, 0x99, 0x2A, 0x3F, 0x0E, 0x89, 0x2A, 0x40, 0x06, 0x93, 0x3E,
    0x72, 0x00, 0x93, 0x41, 0x69, 0x00, 0x93, 0x45, 0x6F, 0x83, 0x32, 0x83,
    0x3C, 0x40, 0x14, 0x83, 0x45, 0x40, 0x00, 0x83, 0x41, 0x40, 0x00, 0x83,
    0x3E, 0x40, 0x06, 0x99, 0x2A, 0x3A, 0x0E, 0x89, 0x2A, 0x40, 0x06, 0x93,
    0x39, 0x6A, 0x00, 0x93, 0x3C, 0x6B, 0x0F, 0x93, 0x3E, 0x69, 0x14, 0x93,
    0x41, 0x71, 0x81, 0x39, 0x99, 0x2E, 0x48, 0x0E, 0x89, 0x2E, 0x40, 0x81,
    0x57, 0x83, 0x41, 0x40, 0x00, 0x83, 0x3E, 0x40, 0x05, 0x83, 0x39, 0x40,
    0x00, 0x83, 0x3C, 0x40, 0x06, 0x93, 0x30, 0x7D, 0x00, 0x99, 0x23, 0x4A,
    0x00, 0x99, 0x2A, 0x54, 0x00, 0x9A, 0x18, 0x64, 0x00, 0x98, 0x3F, 0x45,
    0x00, 0x98, 0x45, 0x3F, 0x04, 0x88, 0x3F, 0x40, 0x00, 0x88, 0x45, 0x40,
    0x0A, 0x89, 0x23, 0x40, 0x00, 0x89, 0x2A, 0x40, 0x15, 0x93, 0x40, 0x67,
    0x00, 0x93, 0x43, 0x79, 0x81, 0x42, 0x83, 0x40, 0x40, 0x0B, 0x93, 0x37,
    0x7E, 0x00, 0x98, 0x45, 0x1E, 0x00, 0x99, 0x2A, 0x45, 0x04, 0x88, 0x45,
    0x40, 0x0A, 0x89, 0x2A, 0x40, 0x81, 0x48, 0x8A, 0x18, 0x40, 0x0F, 0x83,
    0x43, 0x40, 0x06, 0x94, 0x37, 0x4F, 0x00, 0x95, 0x43, 0x41, 0x05, 0x95,
    0x3C, 0x38, 0x00, 0x95, 0x40, 0x45, 0x00, 0x94, 0x40, 0x3D, 0x00, 0x93,
    0x3C, 0x7F, 0x00, 0x99, 0x2A, 0x42, 0x00, 0x98, 0x3E, 0x59, 0x00, 0x98,
    0x45, 0x34, 0x04, 0x88, 0x3E, 0x40, 0x00, 0x88, 0x45, 0x40, 0x0A, 0x89,
    0x2A, 0x40, 0x55, 0x85, 0x43, 0x2C, 0x05, 0x85, 0x3C, 0x27, 0x0A, 0x85,
    0x40, 0x2E, 0x0F, 0x84, 0x40, 0x2F, 0x0A, 0x84, 0x37, 0x35, 0x65, 0x93,
    0x3E, 0x7A, 0x00, 0x98, 0x3F, 0x45, 0x00, 0x98, 0x45, 0x20, 0x00, 0x99,
    0x23, 0x40, 0x00, 0x99, 0x2A, 0x47, 0x00, 0x9A, 0x18, 0x64, 0x04, 0x88,
    0x3F, 0x40, 0x00, 0x88, 0x45, 0x40, 0x0A, 0x89, 0x2A, 0x40, 0x00, 0x89,
    0x23, 0x40, 0x50, 0x8A, 0x18, 0x40, 0x81, 0x12, 0x9A, 0x18, 0x66, 0x00,
    0x99, 0x23, 0x4C, 0x00, 0x99, 0x2A, 0x44, 0x00, 0x98, 0x3F, 0x45, 0x00,
    0x98, 0x45, 0x36, 0x04, 0x88, 0x3F, 0x40, 0x00, 0x88, 0x45, 0x40, 0x0A,
    0x89, 0x23, 0x40, 0x00, 0x89, 0x2A, 0x40, 0x81, 0x62, 0x98, 0x3E, 0x3C,
    0x00, 0x98, 0x45, 0x15, 0x00, 0x99, 0x2A, 0x3C, 0x04, 0x88, 0x3E, 0x40,
    0x00, 0x88, 0x45, 0x40, 0x0A, 0x89, 0x2A, 0x40, 0x06, 0x93, 0x40, 0x7B,
    0x81, 0x57, 0x94, 0x3C, 0x4D, 0x05, 0x94, 0x37, 0x5B, 0x00, 0x94, 0x40,
    0x54, 0x00, 0x99, 0x25, 0x5E, 0x00, 0x99, 0x2A, 0x3F, 0x00, 0x98, 0x40,
    0x45, 0x00, 0x98, 0x45, 0x31, 0x04, 0x88, 0x40, 0x40, 0x00, 0x88, 0x45,
    0x40, 0x0A, 0x89, 0x25, 0x40, 0x00, 0x89, 0x2A, 0x40, 0x00, 0x8A, 0x18,
    0x40, 0x73, 0x84, 0x40, 0x36, 0x00, 0x84, 0x37, 0x3C, 0x0A, 0x84, 0x3C,
    0x3A, 0x5A, 0x83, 0x30, 0x40, 0x0B, 0x98, 0x40, 0x45, 0x00, 0x98, 0x45,
    0x15, 0x00, 0x99, 0x2A, 0x3C, 0x04, 0x88, 0x40, 0x40, 0x00, 0x88, 0x45,
    0x40, 0x0A, 0x89, 0x2A, 0x40, 0x81, 0x3E, 0x83, 0x40, 0x40, 0x0F, 0x83,
    0x3E, 0x40, 0x0F, 0x83, 0x37, 0x40, 0x00, 0x83, 0x3C, 0x40, 0x06, 0x99,
    0x23, 0x4B, 0x00, 0x99, 0x2A, 0x44, 0x00, 0x9A, 0x18, 0x6B, 0x00, 0x98,
    0x3F, 0x45, 0x00, 0x98, 0x45, 0x36, 0x04, 0x88, 0x3F, 0x40, 0x00, 0x88,
    0x45, 0x40, 0x01, 0x93, 0x30, 0x72, 0x09, 0x89, 0x2A, 0x40, 0x00, 0x89,
    0x23, 0x40, 0x81, 0x62, 0x93, 0x37, 0x7F, 0x00, 0x98, 0x45, 0x16, 0x00,
    0x99, 0x2E, 0x38, 0x04, 0x88, 0x45, 0x40, 0x0A, 0x89, 0x2E, 0x40, 0x81,
    0x48, 0x8A, 0x18, 0x40, 0x15, 0x95, 0x40, 0x30, 0x05, 0x95, 0x3B, 0x44,
    0x00, 0x94, 0x3B, 0x53, 0x00, 0x99, 0x2A, 0x40, 0x00, 0x98, 0x3E, 0x58,
    0x00, 0x98, 0x45, 0x32, 0x04, 0x88, 0x3E, 0x40, 0x00, 0x88, 0x45, 0x40,
    0x01, 0x94, 0x40, 0x49, 0x00, 0x93, 0x3C, 0x7E, 0x09, 0x89, 0x2A, 0x40,
    0x01, 0x95, 0x43, 0x5A, 0x5E, 0x85, 0x3B, 0x27, 0x0A, 0x85, 0x40, 0x2E,
    0x0F, 0x85, 0x43, 0x2C, 0x00, 0x84, 0x40, 0x2F, 0x05, 0x84, 0x3B, 0x32,
    0x50, 0x83, 0x3C, 0x40, 0x15, 0x98, 0x3F, 0x45, 0x00, 0x98, 0x45, 0x1D,
    0x00, 0x99, 0x23, 0x44, 0x00, 0x99, 0x2A, 0x44, 0x00, 0x9A, 0x18, 0x66,
    0x04, 0x88, 0x3F, 0x40, 0x00, 0x88, 0x45, 0x40, 0x06, 0x93, 0x3E, 0x7F,
    0x04, 0x89, 0x23, 0x40, 0x00, 0x89, 0x2A, 0x40, 0x01, 0x93, 0x3B, 0x68,
    0x3B, 0x8A, 0x18, 0x40, 0x81, 0x26, 0x9A, 0x18, 0x6B, 0x00, 0x99, 0x23,
    0x4A, 0x00, 0x99, 0x2A, 0x47, 0x00, 0x98, 0x3F, 0x45, 0x00, 0x98, 0x45,
    0x39, 0x04, 0x88, 0x3F, 0x40, 0x00, 0x88, 0x45, 0x40, 0x0A, 0x89, 0x23,
    0x40, 0x00, 0x89, 0x2A, 0x40, 0x81, 0x62, 0x98, 0x3E, 0x3B, 0x00, 0x98,
    0x45, 0x18, 0x00, 0x99, 0x2A, 0x3F, 0x04, 0x88, 0x3E, 0x40, 0x00, 0x88,
    0x45, 0x40, 0x0A, 0x89, 0x2A, 0x40, 0x14, 0x83, 0x3E, 0x40, 0x01, 0x93,
    0x40, 0x78, 0x81, 0x43, 0x94, 0x3B, 0x61, 0x0A, 0x94, 0x37, 0x54, 0x00,
    0x94, 0x40, 0x4F, 0x00, 0x99, 0x25, 0x5E, 0x00, 0x99, 0x2A, 0x48, 0x00,
    0x98, 0x40, 0x36, 0x00, 0x98, 0x45, 0x3A, 0x04, 0x88, 0x40, 0x40, 0x00,
    0x88, 0x45, 0x40, 0x0A, 0x89, 0x2A, 0x40, 0x00, 0x8A, 0x18, 0x40, 0x00,
    0x89, 0x25, 0x40, 0x73, 0x84, 0x40, 0x36, 0x00, 0x84, 0x37, 0x3C, 0x05,
    0x84, 0x3B, 0x3A, 0x6A, 0x98, 0x40, 0x2F, 0x00, 0x98, 0x45, 0x1D, 0x00,
    0x99, 0x2A, 0x44, 0x00, 0x9A, 0x1F, 0x66, 0x04, 0x88, 0x40, 0x40, 0x00,
    0x88, 0x45, 0x40, 0x05, 0x83, 0x40, 0x40, 0x05, 0x83, 0x30, 0x40, 0x00,
    0x89, 0x2A, 0x40, 0x3C, 0x8A, 0x1F, 0x40, 0x81, 0x07, 0x83, 0x3B, 0x40,
    0x06, 0x94, 0x35, 0x64, 0x04, 0x83, 0x37, 0x40, 0x15, 0x9A, 0x1D, 0x64,
    0x00, 0x99, 0x23, 0x4A, 0x00, 0x99, 0x2A, 0x4D, 0x00, 0x98, 0x3F, 0x45,
    0x00, 0x98, 0x45, 0x3F, 0x04, 0x88, 0x3F, 0x40, 0x00, 0x88, 0x45, 0x40,
    0x06, 0x94, 0x37, 0x58, 0x00, 0x93, 0x29, 0x6B, 0x00, 0x93, 0x40, 0x6D,
    0x04, 0x89, 0x2A, 0x40, 0x00, 0x89, 0x23, 0x40, 0x01, 0x93, 0x30, 0x69,
    0x00, 0x94, 0x39, 0x64, 0x00, 0x94, 0x40, 0x5F, 0x05, 0x93, 0x39, 0x77,
    0x05, 0x93, 0x37, 0x6B, 0x4F, 0x84, 0x35, 0x3C, 0x6E, 0x8A, 0x1D, 0x40,
    0x1A, 0x98, 0x45, 0x1E, 0x00, 0x99, 0x2A, 0x45, 0x00, 0x9A, 0x18, 0x64,
    0x04, 0x88, 0x45, 0x40, 0x0A, 0x89, 0x2A, 0x40, 0x81, 0x2F, 0x83, 0x40,
    0x40, 0x19, 0x8A, 0x18, 0x40, 0x1A, 0x9A, 0x1D, 0x64, 0x00, 0x99, 0x2A,
    0x42, 0x00, 0x98, 0x3E, 0x59, 0x00, 0x98, 0x45, 0x34, 0x04, 0x84, 0x40,
    0x40, 0x00, 0x88, 0x45, 0x40, 0x00, 0x84, 0x37, 0x40, 0x00, 0x88, 0x3E,
    0x40, 0x00, 0x84, 0x39, 0x40, 0x06, 0x94, 0x40, 0x5B, 0x04, 0x89, 0x2A,
    0x40, 0x06, 0x93, 0x40, 0x69, 0x81, 0x5C, 0x98, 0x3F, 0x45, 0x00, 0x98,
    0x45, 0x20, 0x00, 0x99, 0x23, 0x40, 0x00, 0x99, 0x2A, 0x47, 0x04, 0x84,
    0x40, 0x40, 0x00, 0x88, 0x3F, 0x40, 0x00, 0x88, 0x45, 0x40, 0x06, 0x94,
    0x41, 0x59, 0x04, 0x89, 0x2A, 0x40, 0x00, 0x89, 0x23, 0x40, 0x00, 0x83,
    0x40, 0x40, 0x0B, 0x93, 0x41, 0x67, 0x81, 0x56, 0x84, 0x41, 0x40, 0x01,
    0x99, 0x23, 0x4C, 0x00, 0x99, 0x2A, 0x44, 0x00, 0x98, 0x3F, 0x45, 0x00,
    0x98, 0x45, 0x36, 0x04, 0x83, 0x41, 0x40, 0x00, 0x88, 0x3F, 0x40, 0x00,
    0x88, 0x45, 0x40, 0x01, 0x94, 0x40, 0x5C, 0x09, 0x89, 0x2A, 0x40, 0x00,
    0x89, 0x23, 0x40, 0x06, 0x93, 0x40, 0x6A, 0x81, 0x42, 0x8A, 0x1D, 0x40,
    0x1A, 0x98, 0x3E, 0x3A, 0x00, 0x98, 0x45, 0x15, 0x00, 0x99, 0x2A, 0x3C,
    0x00, 0x9A, 0x18, 0x6B, 0x04, 0x88, 0x3E, 0x40, 0x00, 0x88, 0x45, 0x40,
    0x0A, 0x89, 0x2A, 0x40, 0x81, 0x62, 0x99, 0x25, 0x5A, 0x00, 0x99, 0x2A,
    0x3F, 0x00, 0x98, 0x40, 0x45, 0x00, 0x98, 0x45, 0x31, 0x04, 0x88, 0x40,
    0x40, 0x00, 0x88, 0x45, 0x40, 0x0A, 0x89, 0x25, 0x40, 0x00, 0x89, 0x2A,
    0x40, 0x00, 0x84, 0x40, 0x40, 0x06, 0x94, 0x41, 0x5F, 0x04, 0x83, 0x40,
    0x40, 0x0B, 0x93, 0x41, 0x6D, 0x81, 0x42, 0x8A, 0x18, 0x40, 0x0A, 0x83,
    0x37, 0x40, 0x01, 0x98, 0x40, 0x45, 0x00, 0x98, 0x45, 0x15, 0x00, 0x99,
    0x2A, 0x3C, 0x00, 0x9A, 0x1D, 0x64, 0x04, 0x88, 0x40, 0x40, 0x00, 0x88,
    0x45, 0x40, 0x05, 0x83, 0x39, 0x40, 0x05, 0x89, 0x2A, 0x40, 0x05, 0x84,
    0x41, 0x40, 0x05, 0x83, 0x41, 0x40, 0x01, 0x94, 0x40, 0x58, 0x0F, 0x93,
    0x40, 0x66, 0x81, 0x2E, 0x8A, 0x1D, 0x40, 0x0A, 0x83, 0x29, 0x40, 0x05,
    0x83, 0x30, 0x40, 0x06, 0x94, 0x35, 0x5C, 0x05, 0x93, 0x2B, 0x68, 0x00,
    0x99, 0x23, 0x4B, 0x00, 0x99, 0x2A, 0x44, 0x00, 0x98, 0x3F, 0x45, 0x00,
    0x98, 0x45, 0x36, 0x04, 0x88, 0x3F, 0x40, 0x00, 0x88, 0x45, 0x40, 0x0A,
    0x89, 0x2A, 0x40, 0x00, 0x89, 0x23, 0x40, 0x01, 0x93, 0x35, 0x6D, 0x81,
    0x4C, 0x84, 0x40, 0x40, 0x06, 0x94, 0x37, 0x5F, 0x0F, 0x98, 0x45, 0x16,
    0x00, 0x99, 0x2A, 0x3D, 0x04, 0x88, 0x45, 0x40, 0x01, 0x9B, 0x37, 0x5A,
    0x09, 0x89, 0x2A, 0x40, 0x81, 0x48, 0x84, 0x37, 0x40, 0x00, 0x84, 0x35,
    0x40, 0x00, 0x83, 0x40, 0x40, 0x06, 0x94, 0x3E, 0x5C, 0x0F, 0x93, 0x3E,
    0x6A, 0x05, 0x99, 0x25, 0x5A, 0x00, 0x99, 0x2A, 0x40, 0x00, 0x98, 0x3E,
    0x58, 0x00, 0x98, 0x45, 0x32, 0x04, 0x88, 0x3E, 0x40, 0x00, 0x88, 0x45,
    0x40, 0x0A, 0x89, 0x25, 0x40, 0x00, 0x89, 0x2A, 0x40, 0x81, 0x48, 0x84,
    0x3E, 0x40, 0x06, 0x94, 0x3C, 0x5B, 0x0A, 0x93, 0x3C, 0x69, 0x0A, 0x98,
    0x3F, 0x45, 0x00, 0x98, 0x45, 0x1D, 0x00, 0x99, 0x23, 0x44, 0x00, 0x99,
    0x2A, 0x44, 0x04, 0x88, 0x3F, 0x40, 0x00, 0x88, 0x45, 0x40, 0x0A, 0x89,
    0x23, 0x40, 0x00, 0x89, 0x2A, 0x40, 0x81, 0x62, 0x99, 0x23, 0x4A, 0x00,
    0x99, 0x2A, 0x47, 0x00, 0x98, 0x3F, 0x45, 0x00, 0x98, 0x45, 0x39, 0x04,
    0x88, 0x3F, 0x40, 0x00, 0x88, 0x45, 0x40, 0x0A, 0x89, 0x2A, 0x40, 0x00,
    0x89, 0x23, 0x40, 0x81, 0x5C, 0x84, 0x3C, 0x40, 0x06, 0x94, 0x37, 0x54,
    0x00, 0x98, 0x3E, 0x41, 0x00, 0x98, 0x45, 0x18, 0x00, 0x99, 0x2A, 0x3F,
    0x04, 0x88, 0x3E, 0x40, 0x00, 0x88, 0x45, 0x40, 0x0A, 0x89, 0x2A, 0x40,
    0x81, 0x62, 0x99, 0x23, 0x4A, 0x00, 0x99, 0x25, 0x61, 0x00, 0x99, 0x2A,
    0x48, 0x00, 0x98, 0x40, 0x36, 0x00, 0x98, 0x45, 0x3A, 0x04, 0x88, 0x40,
    0x40, 0x00, 0x88, 0x45, 0x40, 0x0A, 0x89, 0x25, 0x40, 0x00, 0x89, 0x2A,
    0x40, 0x00, 0x89, 0x23, 0x40, 0x81, 0x34, 0x83, 0x3E, 0x40, 0x2E, 0x98,
    0x40, 0x2F, 0x00, 0x98, 0x45, 0x1D, 0x00, 0x99, 0x2E, 0x3F, 0x04, 0x88,
    0x40, 0x40, 0x00, 0x88, 0x45, 0x40, 0x0A, 0x89, 0x2E, 0x40, 0x32, 0x84,
    0x37, 0x40, 0x81, 0x07, 0x83, 0x35, 0x40, 0x05, 0x83, 0x3C, 0x40, 0x0A,
    0x83, 0x2B, 0x40, 0x05, 0x8B, 0x37, 0x38, 0x14, 0xFF, 0x06, 0x08, 0x45,
    0x6E, 0x64, 0x69, 0x6E, 0x67, 0x20, 0x42, 0x01, 0x93, 0x43, 0x72, 0x00,
    0x99, 0x23, 0x4A, 0x00, 0x99, 0x2A, 0x4D, 0x00, 0x9A, 0x18, 0x64, 0x00,
    0x98, 0x3F, 0x45, 0x00, 0x98, 0x45, 0x3F, 0x04, 0x88, 0x3F, 0x40, 0x00,
    0x88, 0x45, 0x40, 0x01, 0x9B, 0x30, 0x5D, 0x09, 0x89, 0x23, 0x40, 0x00,
    0x89, 0x2A, 0x40, 0x81, 0x48, 0x83, 0x43, 0x40, 0x1A, 0x98, 0x45, 0x1E,
    0x00, 0x99, 0x2A, 0x45, 0x04, 0x88, 0x45, 0x40, 0x06, 0x93, 0x37, 0x7F,
    0x00, 0x9B, 0x43, 0x48, 0x04, 0x89, 0x2A, 0x40, 0x81, 0x48, 0x8A, 0x18,
    0x40, 0x15, 0x94, 0x37, 0x4F, 0x00, 0x94, 0x3C, 0x4D, 0x00, 0x95, 0x43,
    0x41, 0x05, 0x95, 0x3C, 0x38, 0x00, 0x95, 0x40, 0x45, 0x00, 0x94, 0x40,
    0x3D, 0x00, 0x99, 0x25, 0x5F, 0x00, 0x99, 0x2A, 0x42, 0x00, 0x98, 0x3E,
    0x59, 0x00, 0x98, 0x45, 0x34, 0x04, 0x8B, 0x43, 0x40, 0x00, 0x88, 0x3E,
    0x40, 0x00, 0x88, 0x45, 0x40, 0x06, 0x93, 0x3C, 0x7F, 0x04, 0x89, 0x25,
    0x40, 0x00, 0x89, 0x2A, 0x40, 0x01, 0x9B, 0x48, 0x46, 0x54, 0x85, 0x43,
    0x2C, 0x05, 0x85, 0x3C, 0x27, 0x0A, 0x85, 0x40, 0x2E, 0x0F, 0x84, 0x40,
    0x2F, 0x0A, 0x84, 0x37, 0x35, 0x00, 0x84, 0x3C, 0x3A, 0x55, 0x8B, 0x48,
    0x40, 0x0B, 0x9B, 0x47, 0x46, 0x05, 0x98, 0x3F, 0x45, 0x00, 0x98, 0x45,
    0x20, 0x00, 0x99, 0x23, 0x40, 0x00, 0x99, 0x2A, 0x47, 0x00, 0x9A, 0x18,
    0x66, 0x00, 0x93, 0x3E, 0x7F, 0x04, 0x88, 0x3F, 0x40, 0x00, 0x88, 0x45,
    0x40, 0x0A, 0x89, 0x2A, 0x40, 0x00, 0x89, 0x23, 0x40, 0x81, 0x39, 0x8A,
    0x18, 0x40, 0x29, 0x9A, 0x18, 0x6B, 0x00, 0x99, 0x23, 0x4C, 0x00, 0x99,
    0x2A, 0x44, 0x00, 0x98, 0x3F, 0x45, 0x00, 0x98, 0x45, 0x36, 0x04, 0x88,
    0x3F, 0x40, 0x00, 0x88, 0x45, 0x40, 0x0A, 0x89, 0x2A, 0x40, 0x00, 0x89,
    0x23, 0x40, 0x81, 0x57, 0x8B, 0x47, 0x40, 0x0B, 0x93, 0x40, 0x74, 0x00,
    0x98, 0x3E, 0x34, 0x00, 0x98, 0x45, 0x15, 0x00, 0x99, 0x2A, 0x3C, 0x04,
    0x88, 0x3E, 0x40, 0x00, 0x88, 0x45, 0x40, 0x01, 0x9B, 0x45, 0x41, 0x09,
    0x89, 0x2A, 0x40, 0x81, 0x48, 0x8B, 0x30, 0x40, 0x15, 0x94, 0x3C, 0x4D,
    0x05, 0x94, 0x37, 0x5B, 0x00, 0x99, 0x25, 0x5E, 0x00, 0x99, 0x2A, 0x3F,
    0x00, 0x98, 0x40, 0x45, 0x00, 0x98, 0x45, 0x31, 0x04, 0x88, 0x40, 0x40,
    0x00, 0x88, 0x45, 0x40, 0x0A, 0x89, 0x25, 0x40, 0x00, 0x89, 0x2A, 0x40,
    0x01, 0x9B, 0x37, 0x5A, 0x72, 0x84, 0x37, 0x3C, 0x0A, 0x84, 0x3C, 0x3A,
    0x4B, 0x8A, 0x18, 0x40, 0x05, 0x8B, 0x45, 0x40, 0x15, 0x98, 0x40, 0x45,
    0x00, 0x98, 0x45, 0x15, 0x00, 0x99, 0x2A, 0x3C, 0x00, 0x9A, 0x1F, 0x64,
    0x04, 0x88, 0x40, 0x40, 0x00, 0x88, 0x45, 0x40, 0x01, 0x9B, 0x43, 0x46,
    0x09, 0x89, 0x2A, 0x40, 0x14, 0x83, 0x37, 0x40, 0x73, 0x8B, 0x37, 0x40,
    0x41, 0x8A, 0x1F, 0x40, 0x15, 0x9B, 0x39, 0x57, 0x05, 0x9A, 0x18, 0x6B,
    0x00, 0x99, 0x23, 0x4B, 0x00, 0x99, 0x2A, 0x44, 0x00, 0x98, 0x3F, 0x45,
    0x00, 0x98, 0x45, 0x36, 0x04, 0x88, 0x3F, 0x40, 0x00, 0x88, 0x45, 0x40,
    0x05, 0x83, 0x3C, 0x40, 0x05, 0x89, 0x2A, 0x40, 0x00, 0x89, 0x23, 0x40,
    0x05, 0x83, 0x3E, 0x40, 0x0F, 0x83, 0x40, 0x40, 0x81, 0x43, 0x8B, 0x43,
    0x40, 0x0B, 0x93, 0x39, 0x7E, 0x00, 0x98, 0x45, 0x16, 0x00, 0x99, 0x2A,
    0x3D, 0x04, 0x88, 0x45, 0x40, 0x01, 0x9B, 0x3C, 0x3C, 0x09, 0x89, 0x2A,
    0x40, 0x81, 0x48, 0x8A, 0x18, 0x40, 0x0B, 0x93, 0x3E, 0x7F, 0x0A, 0x95,
    0x3E, 0x30, 0x05, 0x95, 0x3C, 0x44, 0x00, 0x94, 0x35, 0x54, 0x00, 0x94,
    0x39, 0x53, 0x00, 0x99, 0x25, 0x60, 0x00, 0x99, 0x2A, 0x40, 0x00, 0x98,
    0x3E, 0x58, 0x00, 0x98, 0x45, 0x32, 0x04, 0x88, 0x3E, 0x40, 0x00, 0x88,
    0x45, 0x40, 0x01, 0x94, 0x3C, 0x49, 0x09, 0x89, 0x25, 0x40, 0x00, 0x89,
    0x2A, 0x40, 0x01, 0x95, 0x41, 0x5A, 0x5E, 0x85, 0x3C, 0x27, 0x0A, 0x85,
    0x3E, 0x2E, 0x0A, 0x84, 0x35, 0x3C, 0x05, 0x84, 0x3C, 0x2F, 0x00, 0x85,
    0x41, 0x2C, 0x05, 0x84, 0x39, 0x32, 0x28, 0x8B, 0x3C, 0x40, 0x2E, 0x93,
    0x40, 0x7E, 0x00, 0x9B, 0x3C, 0x33, 0x0F, 0x98, 0x3F, 0x45, 0x00, 0x98,
    0x45, 0x1D, 0x00, 0x99, 0x23, 0x44, 0x00, 0x99, 0x2A, 0x44, 0x00, 0x9A,
    0x18, 0x66, 0x04, 0x88, 0x3F, 0x40, 0x00, 0x88, 0x45, 0x40, 0x0A, 0x89,
    0x23, 0x40, 0x00, 0x89, 0x2A, 0x40, 0x3C, 0x8A, 0x18, 0x40, 0x81, 0x26,
    0x9A, 0x18, 0x6B, 0x00, 0x99, 0x23, 0x4A, 0x00, 0x99, 0x2A, 0x47, 0x00,
    0x98, 0x3F, 0x45, 0x00, 0x98, 0x45, 0x39, 0x04, 0x88, 0x3F, 0x40, 0x00,
    0x88, 0x45, 0x40, 0x0A, 0x89, 0x2A, 0x40, 0x00, 0x89, 0x23, 0x40, 0x81,
    0x43, 0x8B, 0x3C, 0x40, 0x1F, 0x98, 0x3E, 0x3A, 0x00, 0x98, 0x45, 0x18,
    0x00, 0x99, 0x2A, 0x3F, 0x00, 0x9B, 0x37, 0x53, 0x04, 0x88, 0x3E, 0x40,
    0x00, 0x88, 0x45, 0x40, 0x0A, 0x89, 0x2A, 0x40, 0x1A, 0x93, 0x41, 0x7A,
    0x1D, 0x83, 0x40, 0x40, 0x81, 0x11, 0x8A, 0x18, 0x40, 0x10, 0x94, 0x39,
    0x61, 0x0A, 0x94, 0x35, 0x54, 0x00, 0x99, 0x25, 0x5B, 0x00, 0x99, 0x2A,
    0x48, 0x00, 0x98, 0x40, 0x36, 0x00, 0x98, 0x45, 0x3A, 0x04, 0x88, 0x40,
    0x40, 0x00, 0x88, 0x45, 0x40, 0x0A, 0x89, 0x2A, 0x40, 0x00, 0x89, 0x25,
    0x40, 0x01, 0x99, 0x23, 0x25, 0x0E, 0x89, 0x23, 0x40, 0x06, 0x9A, 0x18,
    0x6B, 0x5E, 0x84, 0x35, 0x3C, 0x05, 0x84, 0x39, 0x3A, 0x6A, 0x99, 0x2A,
    0x44, 0x00, 0x98, 0x40, 0x2F, 0x00, 0x98, 0x45, 0x1D, 0x04, 0x88, 0x40,
    0x40, 0x00, 0x88, 0x45, 0x40, 0x0A, 0x89, 0x2A, 0x40, 0x81, 0x3E, 0x8B,
    0x39, 0x40, 0x28, 0x8B, 0x37, 0x40, 0x05, 0x8A, 0x18, 0x40, 0x1A, 0x94,
    0x2B, 0x5F, 0x00, 0x99, 0x35, 0x39, 0x05, 0x93, 0x45, 0x7F, 0x09, 0x89,
    0x35, 0x40, 0x06, 0x93, 0x48, 0x7F, 0x00, 0x94, 0x35, 0x5F, 0x0F, 0x9B,
    0x4F, 0x2B, 0x00, 0x9B, 0x58, 0x22, 0x05, 0x99, 0x3B, 0x42, 0x0E, 0x89,
    0x3B, 0x40, 0x1A, 0x94, 0x39, 0x61, 0x00, 0x9A, 0x1F, 0x66, 0x55, 0x94,
    0x3C, 0x57, 0x3C, 0x94, 0x3E, 0x56, 0x8B, 0x38, 0x8B, 0x4F, 0x38, 0x00,
    0x8B, 0x58, 0x38, 0x81, 0x02, 0x84, 0x39, 0x40, 0x0F, 0x83, 0x3E, 0x40,
    0x00, 0x83, 0x39, 0x40, 0x00, 0x83, 0x45, 0x40, 0x00, 0x83, 0x48, 0x40,
    0x0F, 0x83, 0x41, 0x40, 0x14, 0x84, 0x2B, 0x40, 0x14, 0x84, 0x35, 0x40,
    0x05, 0x8A, 0x1F, 0x40, 0x0F, 0x84, 0x3C, 0x40, 0x0A, 0x84, 0x3E, 0x40,
    0x8E, 0x5D, 0xFF, 0x2F, 0x00, 0x43, 0x41, 0x53, 0x4D, 0x00, 0x00, 0x04,
    0x0B, 0x43, 0x53, 0x45, 0x47, 0x00, 0x00, 0x01, 0x73, 0x53, 0x64, 0x65,
    0x63, 0x00, 0x00, 0x00, 0x1C, 0x4D, 0x61, 0x69, 0x6E, 0x20, 0x41, 0x2C,
    0x46, 0x69, 0x6C, 0x6C, 0x20, 0x49, 0x6E, 0x20, 0x41, 0x41, 0x2C, 0x46,
    0x69, 0x6C, 0x6C, 0x20, 0x49, 0x6E, 0x20, 0x41, 0x42, 0x43, 0x74, 0x61,
    0x62, 0x00, 0x00, 0x00, 0x1B, 0x01, 0x30, 0x34, 0x45, 0x70, 0x4C, 0x6F,
    0x77, 0x20, 0x0F, 0x01, 0x0F, 0xFF, 0x03, 0xFF, 0xFF, 0xFF, 0xFF, 0x00,
    0x00, 0x00, 0x03, 0x07, 0x00, 0x7F, 0x04, 0x00, 0x43, 0x74, 0x61, 0x62,
    0x00, 0x00, 0x00, 0x23, 0x02, 0x30, 0x34, 0x45, 0x50, 0x20, 0x20, 0x20,
    0x20, 0x0E, 0x01, 0x0A, 0xAA, 0x03, 0xFF, 0xFF, 0xFF, 0xFF, 0x00, 0x01,
    0x01, 0x02, 0x04, 0x00, 0x7F, 0x03, 0x01, 0x00, 0x2E, 0x39, 0x51, 0x3C,
    0x4F, 0x40, 0x53, 0x43, 0x74, 0x61, 0x62, 0x00, 0x00, 0x00, 0x23, 0x03,
    0x30, 0x34, 0x45, 0x50, 0x20, 0x20, 0x20, 0x20, 0x0E, 0x01, 0x05, 0x55,
    0x03, 0xFF, 0xFF, 0xFF, 0xFF, 0x04, 0x01, 0x01, 0x02, 0x04, 0x00, 0x7F,
    0x03, 0x02, 0x00, 0x2E, 0x38, 0x53, 0x3D, 0x51, 0x40, 0x55, 0x43, 0x74,
    0x61, 0x62, 0x00, 0x00, 0x00, 0x1B, 0x04, 0x32, 0x35, 0x41, 0x63, 0x47,
    0x74, 0x20, 0x20, 0x0B, 0x01, 0x0F, 0xFF, 0x03, 0xFF, 0xFF, 0xFF, 0xFF,
    0x00, 0x01, 0x01, 0x02, 0x07, 0x00, 0x7F, 0x01, 0x00, 0x43, 0x74, 0x61,
    0x62, 0x00, 0x00, 0x00, 0x1B, 0x05, 0x32, 0x36, 0x4A, 0x7A, 0x47, 0x74,
    0x20, 0x20, 0x0C, 0x01, 0x0F, 0xFF, 0x03, 0xFF, 0xFF, 0xFF, 0xFF, 0x00,
    0x02, 0x00, 0x02, 0x07, 0x36, 0x42, 0x01, 0x00, 0x43, 0x74, 0x61, 0x62,
    0x00, 0x00, 0x00, 0x1B, 0x08, 0x30, 0x30, 0x52, 0x68, 0x79, 0x74, 0x68,
    0x32, 0x08, 0x01, 0x0F, 0xFF, 0x07, 0xFF, 0xFF, 0xFF, 0xFF, 0x00, 0x02,
    0x01, 0x00, 0x06, 0x00, 0x7F, 0x01, 0x00, 0x43, 0x74, 0x61, 0x62, 0x00,
    0x00, 0x00, 0x1B, 0x09, 0x30, 0x30, 0x52, 0x68, 0x79, 0x74, 0x68, 0x31,
    0x09, 0x01, 0x0F, 0xFF, 0x07, 0xFF, 0xFF, 0xFF, 0xFF, 0x00, 0x02, 0x01,
    0x00, 0x06, 0x00, 0x7F, 0x01, 0x00, 0x43, 0x74, 0x61, 0x62, 0x00, 0x00,
    0x00, 0x1F, 0x0A, 0x33, 0x33, 0x46, 0x67, 0x42, 0x61, 0x73, 0x73, 0x0A,
    0x01, 0x0F, 0xFF, 0x03, 0xFF, 0xFF, 0xFF, 0xFF, 0x00, 0x02, 0x00, 0x03,
    0x08, 0x1C, 0x7F, 0x00, 0x01, 0x00, 0x16, 0x18, 0x6E, 0x43, 0x74, 0x61,
    0x62, 0x00, 0x00, 0x00, 0x1B, 0x0B, 0x34, 0x38, 0x53, 0x74, 0x72, 0x20,
    0x20, 0x20, 0x0D, 0x01, 0x0F, 0xFF, 0x03, 0xFF, 0xFF, 0xFF, 0xFF, 0x00,
    0x01, 0x01, 0x01, 0x03, 0x00, 0x7F, 0x01, 0x00, 0x43, 0x53, 0x45, 0x47,
    0x00, 0x00, 0x01, 0x73, 0x53, 0x64, 0x65, 0x63, 0x00, 0x00, 0x00, 0x1C,
    0x4D, 0x61, 0x69, 0x6E, 0x20, 0x42, 0x2C, 0x46, 0x69, 0x6C, 0x6C, 0x20,
    0x49, 0x6E, 0x20, 0x42, 0x42, 0x2C, 0x46, 0x69, 0x6C, 0x6C, 0x20, 0x49,
    0x6E, 0x20, 0x42, 0x41, 0x43, 0x74, 0x61, 0x62, 0x00, 0x00, 0x00, 0x1B,
    0x01, 0x30, 0x34, 0x45, 0x70, 0x4C, 0x6F, 0x77, 0x20, 0x0F, 0x01, 0x0F,
    0xFF, 0x03, 0xFF, 0xFF, 0xFF, 0xFF, 0x00, 0x00, 0x00, 0x03, 0x03, 0x00,
    0x7F, 0x04, 0x00, 0x43, 0x74, 0x61, 0x62, 0x00, 0x00, 0x00, 0x23, 0x02,
    0x30, 0x34, 0x45, 0x50, 0x20, 0x20, 0x20, 0x20, 0x0E, 0x01, 0x02, 0xAA,
    0x03, 0xFF, 0xFF, 0xFF, 0xFF, 0x00, 0x02, 0x01, 0x02, 0x04, 0x33, 0x7F,
    0x03, 0x01, 0x00, 0x2E, 0x3B, 0x4C, 0x34, 0x51, 0x37, 0x52, 0x43, 0x74,
    0x61, 0x62, 0x00, 0x00, 0x00, 0x23, 0x03, 0x30, 0x34, 0x45, 0x50, 0x20,
    0x20, 0x20, 0x20, 0x0E, 0x01, 0x0D, 0x55, 0x03, 0xFF, 0xFF, 0xFF, 0xFF,
    0x02, 0x02, 0x01, 0x02, 0x04, 0x00, 0x7F, 0x03, 0x02, 0x00, 0x2E, 0x36,
    0x50, 0x39, 0x53, 0x3D, 0x51, 0x43, 0x74, 0x61, 0x62, 0x00, 0x00, 0x00,
    0x1B, 0x04, 0x32, 0x35, 0x41, 0x63, 0x47, 0x74, 0x20, 0x20, 0x0B, 0x01,
    0x0F, 0xFF, 0x03, 0xFF, 0xFF, 0xFF, 0xFF, 0x00, 0x01, 0x01, 0x02, 0x07,
    0x00, 0x7F, 0x01, 0x00, 0x43, 0x74, 0x61, 0x62, 0x00, 0x00, 0x00, 0x1B,
    0x05, 0x32, 0x36, 0x4A, 0x7A, 0x47, 0x74, 0x20, 0x20, 0x0C, 0x01, 0x0F,
    0xFF, 0x03, 0xFF, 0xFF, 0xFF, 0xFF, 0x00, 0x02, 0x00, 0x02, 0x07, 0x36,
    0x42, 0x01, 0x00, 0x43, 0x74, 0x61, 0x62, 0x00, 0x00, 0x00, 0x1B, 0x08,
    0x30, 0x30, 0x41, 0x64, 0x64, 0x20, 0x20, 0x20, 0x08, 0x01, 0x0F, 0xFF,
    0x07, 0xFF, 0xFF, 0xFF, 0xFF, 0x00, 0x02, 0x01, 0x00, 0x06, 0x00, 0x7F,
    0x01, 0x00, 0x43, 0x74, 0x61, 0x62, 0x00, 0x00, 0x00, 0x1B, 0x09, 0x30,
    0x30, 0x4D, 0x61, 0x69, 0x6E, 0x20, 0x20, 0x09, 0x01, 0x0F, 0xFF, 0x07,
    0xFF, 0xFF, 0xFF, 0xFF, 0x00, 0x02, 0x01, 0x00, 0x06, 0x00, 0x7F, 0x01,
    0x00, 0x43, 0x74, 0x61, 0x62, 0x00, 0x00, 0x00, 0x1F, 0x0A, 0x33, 0x33,
    0x46, 0x67, 0x42, 0x61, 0x73, 0x73, 0x0A, 0x01, 0x0F, 0xFF, 0x03, 0xFF,
    0xFF, 0xFF, 0xFF, 0x00, 0x02, 0x00, 0x03, 0x08, 0x1C, 0x7F, 0x00, 0x01,
    0x00, 0x16, 0x18, 0x6E, 0x43, 0x74, 0x61, 0x62, 0x00, 0x00, 0x00, 0x1B,
    0x0B, 0x34, 0x38, 0x53, 0x74, 0x72, 0x20, 0x20, 0x20, 0x0D, 0x01, 0x0F,
    0xFF, 0x03, 0xFF, 0xFF, 0xFF, 0xFF, 0x00, 0x01, 0x01, 0x02, 0x03, 0x00,
    0x7F, 0x01, 0x00, 0x43, 0x53, 0x45, 0x47, 0x00, 0x00, 0x01, 0x0D, 0x53,
    0x64, 0x65, 0x63, 0x00, 0x00, 0x00, 0x10, 0x49, 0x6E, 0x74, 0x72, 0x6F,
    0x20, 0x42, 0x2C, 0x45, 0x6E, 0x64, 0x69, 0x6E, 0x67, 0x20, 0x42, 0x43,
    0x74, 0x61, 0x62, 0x00, 0x00, 0x00, 0x1B, 0x03, 0x30, 0x30, 0x50, 0x69,
    0x61, 0x6E, 0x6F, 0x20, 0x0E, 0x01, 0x0F, 0xFF, 0x03, 0xFF, 0xFF, 0xFF,
    0xFF, 0x00, 0x02, 0x00, 0x05, 0x07, 0x00, 0x7F, 0x01, 0x00, 0x43, 0x74,
    0x61, 0x62, 0x00, 0x00, 0x00, 0x1B, 0x04, 0x32, 0x35, 0x41, 0x63, 0x47,
    0x74, 0x20, 0x20, 0x0B, 0x01, 0x0F, 0xFF, 0x03, 0xFF, 0xFF, 0xFF, 0xFF,
    0x00, 0x02, 0x00, 0x05, 0x07, 0x00, 0x7F, 0x01, 0x00, 0x43, 0x74, 0x61,
    0x62, 0x00, 0x00, 0x00, 0x1B, 0x05, 0x32, 0x36, 0x4A, 0x7A, 0x47, 0x74,
    0x20, 0x20, 0x0C, 0x01, 0x0F, 0xFF, 0x03, 0xFF, 0xFF, 0xFF, 0xFF, 0x00,
    0x02, 0x00, 0x05, 0x07, 0x00, 0x7F, 0x01, 0x00, 0x43, 0x74, 0x61, 0x62,
    0x00, 0x00, 0x00, 0x1B, 0x08, 0x30, 0x30, 0x52, 0x68, 0x79, 0x74, 0x68,
    0x32, 0x08, 0x01, 0x0F, 0xFF, 0x07, 0xFF, 0xFF, 0xFF, 0xFF, 0x00, 0x02,
    0x01, 0x00, 0x06, 0x00, 0x7F, 0x01, 0x00, 0x43, 0x74, 0x61, 0x62, 0x00,
    0x00, 0x00, 0x1B, 0x09, 0x30, 0x30, 0x52, 0x68, 0x79, 0x74, 0x68, 0x31,
    0x09, 0x01, 0x0F, 0xFF, 0x07, 0xFF, 0xFF, 0xFF, 0xFF, 0x00, 0x02, 0x01,
    0x00, 0x06, 0x00, 0x7F, 0x01, 0x00, 0x43, 0x74, 0x61, 0x62, 0x00, 0x00,
    0x00, 0x1B, 0x0A, 0x33, 0x33, 0x46, 0x67, 0x42, 0x61, 0x73, 0x73, 0x0A,
    0x01, 0x0F, 0xFF, 0x03, 0xFF, 0xFF, 0xFF, 0xFF, 0x00, 0x02, 0x00, 0x05,
    0x08, 0x1C, 0x7F, 0x01, 0x00, 0x43, 0x74, 0x61, 0x62, 0x00, 0x00, 0x00,
    0x1B, 0x0B, 0x34, 0x38, 0x53, 0x74, 0x72, 0x20, 0x20, 0x20, 0x0D, 0x01,
    0x0F, 0xFF, 0x03, 0xFF, 0xF8, 0x00, 0xFF, 0x00, 0x02, 0x00, 0x05, 0x07,
    0x00, 0x7F, 0x01, 0x00
};
    }
}