/* C:\Users\TYV\source\repos\MidiStyler\midifiles\lai.mid (19.09.2016 12:14:42)
   StartOffset(h): 00000000, EndOffset(h): 00001E00, Длина(h): 00001E01 */
namespace MidiAranger.Droid.Source.midiplayer
{
    public class DEBUGDATA
    {
        public static byte[] midifileData = {
    0x4D, 0x54, 0x68, 0x64, 0x00, 0x00, 0x00, 0x06, 0x00, 0x01, 0x00, 0x07,
    0x01, 0x80, 0x4D, 0x54, 0x72, 0x6B, 0x00, 0x00, 0x00, 0x15, 0x00, 0xFF,
    0x51, 0x03, 0x0A, 0x2C, 0x1E, 0x00, 0xFF, 0x58, 0x04, 0x04, 0x02, 0x18,
    0x08, 0x84, 0xD8, 0x00, 0xFF, 0x2F, 0x00, 0x4D, 0x54, 0x72, 0x6B, 0x00,
    0x00, 0x04, 0x58, 0x00, 0xFF, 0x03, 0x05, 0x70, 0x69, 0x61, 0x6E, 0x6F,
    0x84, 0x40, 0xB0, 0x79, 0x00, 0x60, 0xC0, 0x00, 0x00, 0xB0, 0x07, 0x62,
    0x81, 0x40, 0xB0, 0x0A, 0x35, 0x60, 0xB0, 0x5B, 0x3D, 0x8A, 0x30, 0x90,
    0x48, 0x70, 0x81, 0x40, 0x90, 0x4A, 0x70, 0x10, 0x80, 0x48, 0x70, 0x81,
    0x20, 0x80, 0x4A, 0x70, 0x10, 0x90, 0x4C, 0x70, 0x81, 0x40, 0x90, 0x4F,
    0x70, 0x20, 0x80, 0x4C, 0x70, 0x81, 0x20, 0x80, 0x4F, 0x70, 0x00, 0x90,
    0x54, 0x70, 0x87, 0x40, 0x90, 0x4C, 0x70, 0x10, 0x80, 0x54, 0x70, 0x81,
    0x30, 0x90, 0x4F, 0x70, 0x81, 0x40, 0x90, 0x54, 0x70, 0x20, 0x80, 0x4F,
    0x70, 0x81, 0x10, 0x80, 0x54, 0x70, 0x10, 0x90, 0x53, 0x70, 0x86, 0x50,
    0x80, 0x4C, 0x70, 0x70, 0x90, 0x4C, 0x70, 0x85, 0x70, 0x80, 0x53, 0x70,
    0x10, 0x90, 0x51, 0x70, 0x81, 0x40, 0x80, 0x4C, 0x70, 0x00, 0x90, 0x4F,
    0x70, 0x81, 0x40, 0x90, 0x4C, 0x70, 0x83, 0x00, 0x90, 0x4A, 0x70, 0x82,
    0x70, 0x80, 0x4A, 0x70, 0x10, 0x90, 0x48, 0x70, 0x81, 0x40, 0x80, 0x48,
    0x70, 0x00, 0x80, 0x4C, 0x70, 0x00, 0x90, 0x48, 0x70, 0x20, 0x80, 0x4F,
    0x70, 0x00, 0x80, 0x51, 0x70, 0x8B, 0x10, 0x80, 0x48, 0x70, 0xB2, 0x10,
    0x90, 0x51, 0x70, 0x81, 0x40, 0x90, 0x56, 0x70, 0x82, 0x70, 0x80, 0x56,
    0x70, 0x10, 0x90, 0x54, 0x70, 0x88, 0x40, 0x80, 0x51, 0x70, 0x20, 0x80,
    0x54, 0x70, 0xD8, 0x60, 0x90, 0x5A, 0x70, 0x81, 0x20, 0x80, 0x5A, 0x70,
    0x20, 0x90, 0x56, 0x70, 0x81, 0x40, 0x80, 0x56, 0x70, 0x10, 0x90, 0x51,
    0x70, 0x89, 0x40, 0x80, 0x51, 0x70, 0x86, 0x70, 0x90, 0x4F, 0x70, 0x82,
    0x70, 0x80, 0x4F, 0x70, 0x10, 0x90, 0x4D, 0x70, 0x83, 0x00, 0x80, 0x4D,
    0x70, 0x00, 0x90, 0x4A, 0x70, 0x83, 0x00, 0x90, 0x47, 0x70, 0x10, 0x80,
    0x4A, 0x70, 0x82, 0x40, 0x80, 0x47, 0x70, 0x30, 0x90, 0x48, 0x70, 0x00,
    0x90, 0x4C, 0x70, 0x81, 0x40, 0x90, 0x4A, 0x70, 0x00, 0x90, 0x4D, 0x70,
    0x10, 0x80, 0x4C, 0x70, 0x00, 0x80, 0x48, 0x70, 0x82, 0x40, 0x80, 0x4D,
    0x70, 0x00, 0x80, 0x4A, 0x70, 0x40, 0x90, 0x4C, 0x70, 0x00, 0x90, 0x4F,
    0x70, 0x84, 0x10, 0x80, 0x4F, 0x70, 0x10, 0x80, 0x4C, 0x70, 0x81, 0x50,
    0x90, 0x4D, 0x70, 0x00, 0x90, 0x4A, 0x70, 0x81, 0x30, 0x80, 0x4A, 0x70,
    0x00, 0x80, 0x4D, 0x70, 0x20, 0x90, 0x48, 0x70, 0x00, 0x90, 0x4C, 0x70,
    0x81, 0x10, 0x80, 0x4C, 0x70, 0x00, 0x80, 0x48, 0x70, 0x20, 0x90, 0x4C,
    0x70, 0x00, 0x90, 0x4F, 0x70, 0x81, 0x20, 0x80, 0x4F, 0x70, 0x00, 0x80,
    0x4C, 0x70, 0x84, 0x70, 0x90, 0x51, 0x70, 0x81, 0x10, 0x80, 0x51, 0x70,
    0x20, 0x90, 0x59, 0x70, 0x00, 0x90, 0x51, 0x70, 0x81, 0x30, 0x80, 0x51,
    0x70, 0x00, 0x80, 0x59, 0x70, 0x10, 0x90, 0x58, 0x70, 0x00, 0x90, 0x4F,
    0x70, 0x81, 0x10, 0x80, 0x4F, 0x70, 0x10, 0x80, 0x58, 0x70, 0x20, 0x90,
    0x4F, 0x70, 0x00, 0x90, 0x58, 0x70, 0x81, 0x40, 0x80, 0x58, 0x70, 0x00,
    0x80, 0x4F, 0x70, 0x00, 0x90, 0x4D, 0x70, 0x00, 0x90, 0x56, 0x70, 0x81,
    0x30, 0x80, 0x4D, 0x70, 0x10, 0x80, 0x56, 0x70, 0x00, 0x90, 0x4D, 0x70,
    0x10, 0x90, 0x56, 0x70, 0x88, 0x60, 0x80, 0x56, 0x70, 0x20, 0x80, 0x4D,
    0x70, 0x87, 0x40, 0x90, 0x4F, 0x70, 0x00, 0x90, 0x58, 0x70, 0x81, 0x10,
    0x80, 0x4F, 0x70, 0x10, 0x80, 0x58, 0x70, 0x10, 0x90, 0x58, 0x70, 0x00,
    0x90, 0x4F, 0x70, 0x81, 0x30, 0x80, 0x4F, 0x70, 0x00, 0x80, 0x58, 0x70,
    0x10, 0x90, 0x56, 0x70, 0x00, 0x90, 0x4D, 0x70, 0x81, 0x10, 0x80, 0x4D,
    0x70, 0x10, 0x80, 0x56, 0x70, 0x20, 0x90, 0x56, 0x70, 0x00, 0x90, 0x4D,
    0x70, 0x81, 0x40, 0x80, 0x4D, 0x70, 0x00, 0x80, 0x56, 0x70, 0x00, 0x90,
    0x4C, 0x70, 0x00, 0x90, 0x54, 0x70, 0x81, 0x30, 0x80, 0x54, 0x70, 0x00,
    0x80, 0x4C, 0x70, 0x20, 0x90, 0x4C, 0x70, 0x00, 0x90, 0x54, 0x70, 0x8A,
    0x10, 0x80, 0x54, 0x70, 0x30, 0x80, 0x4C, 0x70, 0x9A, 0x70, 0x90, 0x4F,
    0x70, 0x81, 0x40, 0x90, 0x53, 0x70, 0x81, 0x40, 0x80, 0x53, 0x70, 0x10,
    0x90, 0x54, 0x70, 0x81, 0x30, 0x90, 0x58, 0x70, 0x20, 0x80, 0x54, 0x70,
    0x83, 0x70, 0x80, 0x4F, 0x70, 0x30, 0x80, 0x58, 0x70, 0x00, 0x90, 0x4F,
    0x70, 0x86, 0x70, 0x80, 0x4F, 0x70, 0xBE, 0x10, 0x90, 0x56, 0x70, 0x81,
    0x40, 0x90, 0x54, 0x70, 0x20, 0x80, 0x56, 0x70, 0x81, 0x10, 0x80, 0x54,
    0x70, 0x10, 0x90, 0x51, 0x70, 0x81, 0x40, 0x80, 0x51, 0x70, 0x00, 0x90,
    0x4E, 0x70, 0x8A, 0x10, 0x80, 0x4E, 0x70, 0x81, 0x70, 0x90, 0x4D, 0x70,
    0x89, 0x00, 0x80, 0x4D, 0x70, 0x00, 0x90, 0x4C, 0x70, 0x81, 0x50, 0x80,
    0x4C, 0x70, 0x00, 0x90, 0x4A, 0x70, 0x81, 0x30, 0x80, 0x4A, 0x70, 0x00,
    0x90, 0x4A, 0x70, 0x10, 0x80, 0x4A, 0x70, 0x82, 0x70, 0x90, 0x48, 0x70,
    0x00, 0x90, 0x4C, 0x70, 0x81, 0x10, 0x80, 0x48, 0x70, 0x10, 0x80, 0x4C,
    0x70, 0x20, 0x90, 0x4A, 0x70, 0x00, 0x90, 0x4D, 0x70, 0x82, 0x40, 0x80,
    0x4A, 0x70, 0x10, 0x80, 0x4D, 0x70, 0x30, 0x90, 0x4F, 0x70, 0x00, 0x90,
    0x4C, 0x70, 0x85, 0x50, 0x80, 0x4C, 0x70, 0x10, 0x80, 0x4F, 0x70, 0x20,
    0x90, 0x4A, 0x70, 0x00, 0x90, 0x4D, 0x70, 0x81, 0x30, 0x80, 0x4D, 0x70,
    0x00, 0x80, 0x4A, 0x70, 0x10, 0x90, 0x48, 0x70, 0x00, 0x90, 0x4C, 0x70,
    0x81, 0x10, 0x80, 0x4C, 0x70, 0x10, 0x80, 0x48, 0x70, 0x20, 0x90, 0x4C,
    0x70, 0x10, 0x90, 0x4F, 0x70, 0x81, 0x00, 0x80, 0x4F, 0x70, 0x10, 0x80,
    0x4C, 0x70, 0x84, 0x70, 0x90, 0x51, 0x70, 0x81, 0x10, 0x80, 0x51, 0x70,
    0x20, 0x90, 0x59, 0x70, 0x10, 0x90, 0x51, 0x70, 0x81, 0x20, 0x80, 0x51,
    0x70, 0x00, 0x80, 0x59, 0x70, 0x10, 0x90, 0x4F, 0x70, 0x00, 0x90, 0x58,
    0x70, 0x81, 0x10, 0x80, 0x4F, 0x70, 0x10, 0x80, 0x58, 0x70, 0x20, 0x90,
    0x58, 0x70, 0x00, 0x90, 0x4F, 0x70, 0x81, 0x40, 0x80, 0x4F, 0x70, 0x00,
    0x80, 0x58, 0x70, 0x10, 0x90, 0x4D, 0x70, 0x00, 0x90, 0x56, 0x70, 0x81,
    0x20, 0x80, 0x56, 0x70, 0x10, 0x80, 0x4D, 0x70, 0x00, 0x90, 0x4D, 0x70,
    0x00, 0x90, 0x56, 0x70, 0x88, 0x70, 0x80, 0x56, 0x70, 0x20, 0x80, 0x4D,
    0x70, 0x87, 0x40, 0x90, 0x4F, 0x70, 0x00, 0x90, 0x58, 0x70, 0x81, 0x10,
    0x80, 0x4F, 0x70, 0x10, 0x80, 0x58, 0x70, 0x10, 0x90, 0x58, 0x70, 0x00,
    0x90, 0x4F, 0x70, 0x81, 0x30, 0x80, 0x4F, 0x70, 0x00, 0x80, 0x58, 0x70,
    0x10, 0x90, 0x56, 0x70, 0x00, 0x90, 0x4D, 0x70, 0x81, 0x10, 0x80, 0x4D,
    0x70, 0x10, 0x80, 0x56, 0x70, 0x20, 0x90, 0x56, 0x70, 0x00, 0x90, 0x4D,
    0x70, 0x81, 0x40, 0x80, 0x4D, 0x70, 0x00, 0x80, 0x56, 0x70, 0x10, 0x90,
    0x4C, 0x70, 0x00, 0x90, 0x54, 0x70, 0x81, 0x20, 0x80, 0x54, 0x70, 0x00,
    0x80, 0x4C, 0x70, 0x20, 0x90, 0x4C, 0x70, 0x00, 0x90, 0x54, 0x70, 0x8A,
    0x10, 0x80, 0x54, 0x70, 0x30, 0x80, 0x4C, 0x70, 0x9A, 0x70, 0x90, 0x4F,
    0x70, 0x81, 0x40, 0x90, 0x53, 0x70, 0x81, 0x50, 0x80, 0x53, 0x70, 0x00,
    0x90, 0x54, 0x70, 0x81, 0x30, 0x90, 0x58, 0x70, 0x20, 0x80, 0x54, 0x70,
    0x83, 0x70, 0x80, 0x4F, 0x70, 0x30, 0x80, 0x58, 0x70, 0x10, 0x90, 0x4F,
    0x70, 0x81, 0x30, 0x80, 0x4F, 0x70, 0x10, 0x90, 0x4F, 0x70, 0x81, 0x10,
    0x80, 0x4F, 0x70, 0x20, 0x90, 0x4D, 0x70, 0x81, 0x30, 0x80, 0x4D, 0x70,
    0x10, 0x90, 0x4B, 0x70, 0x81, 0x30, 0x80, 0x4B, 0x70, 0x10, 0x90, 0x48,
    0x70, 0x81, 0x40, 0x90, 0x46, 0x70, 0x20, 0x80, 0x48, 0x70, 0x82, 0x60,
    0x90, 0x4A, 0x70, 0x10, 0x80, 0x46, 0x70, 0x82, 0x70, 0x90, 0x48, 0x70,
    0x10, 0x80, 0x4A, 0x70, 0x8B, 0x70, 0x90, 0x54, 0x70, 0x8A, 0x30, 0x80,
    0x48, 0x70, 0x10, 0x80, 0x54, 0x70, 0x8D, 0x50, 0xFF, 0x2F, 0x00, 0x4D,
    0x54, 0x72, 0x6B, 0x00, 0x00, 0x09, 0x61, 0x00, 0xFF, 0x03, 0x06, 0x6D,
    0x65, 0x6C, 0x6F, 0x64, 0x79, 0x86, 0x60, 0xB1, 0x79, 0x00, 0x60, 0xB1,
    0x0B, 0x7D, 0x00, 0xB1, 0x07, 0x7B, 0x5F, 0xB1, 0x00, 0x00, 0x01, 0xB1,
    0x20, 0x02, 0x01, 0xC1, 0x4F, 0x5F, 0xB1, 0x0A, 0x29, 0x60, 0xB1, 0x5B,
    0x65, 0xB5, 0x20, 0x91, 0x4C, 0x67, 0x81, 0x40, 0x81, 0x4C, 0x67, 0x00,
    0x91, 0x4D, 0x60, 0x81, 0x30, 0x91, 0x4F, 0x68, 0x10, 0x81, 0x4D, 0x60,
    0x84, 0x30, 0x81, 0x4F, 0x68, 0x20, 0x91, 0x58, 0x6D, 0x81, 0x30, 0x81,
    0x58, 0x6D, 0x00, 0x91, 0x51, 0x5D, 0x60, 0xB1, 0x01, 0x08, 0x60, 0xB1,
    0x01, 0x10, 0x81, 0x40, 0xB1, 0x01, 0x19, 0x81, 0x40, 0xB1, 0x01, 0x20,
    0x81, 0x40, 0xB1, 0x01, 0x27, 0x81, 0x40, 0xB1, 0x01, 0x30, 0x81, 0x40,
    0xB1, 0x01, 0x38, 0x81, 0x40, 0xB1, 0x01, 0x40, 0x81, 0x40, 0x81, 0x51,
    0x5D, 0x00, 0xB1, 0x01, 0x00, 0x81, 0x40, 0x91, 0x51, 0x6D, 0x81, 0x10,
    0x81, 0x51, 0x6D, 0x20, 0x91, 0x51, 0x60, 0x81, 0x40, 0x81, 0x51, 0x60,
    0x00, 0x91, 0x53, 0x5F, 0x81, 0x10, 0x81, 0x53, 0x5F, 0x20, 0x91, 0x53,
    0x63, 0x81, 0x40, 0x81, 0x53, 0x63, 0x10, 0x91, 0x54, 0x63, 0x81, 0x10,
    0x81, 0x54, 0x63, 0x20, 0x91, 0x54, 0x66, 0x81, 0x40, 0x81, 0x54, 0x66,
    0x00, 0x91, 0x56, 0x5D, 0x81, 0x30, 0x81, 0x56, 0x5D, 0x10, 0x91, 0x4F,
    0x64, 0x81, 0x26, 0xB1, 0x01, 0x08, 0x60, 0xB1, 0x01, 0x10, 0x81, 0x40,
    0xB1, 0x01, 0x19, 0x81, 0x40, 0xB1, 0x01, 0x20, 0x81, 0x40, 0xB1, 0x01,
    0x27, 0x81, 0x40, 0xB1, 0x01, 0x30, 0x81, 0x40, 0xB1, 0x01, 0x38, 0x4A,
    0x81, 0x4F, 0x64, 0x76, 0xB1, 0x01, 0x40, 0x81, 0x40, 0xB1, 0x01, 0x00,
    0x81, 0x0A, 0x91, 0x4F, 0x63, 0x81, 0x20, 0x81, 0x4F, 0x63, 0x10, 0x91,
    0x4F, 0x65, 0x81, 0x50, 0x81, 0x4F, 0x65, 0x00, 0x91, 0x51, 0x60, 0x81,
    0x20, 0x81, 0x51, 0x60, 0x10, 0x91, 0x51, 0x60, 0x81, 0x40, 0x81, 0x51,
    0x60, 0x00, 0x91, 0x53, 0x5E, 0x81, 0x20, 0x81, 0x53, 0x5E, 0x20, 0x91,
    0x53, 0x5A, 0x81, 0x40, 0x81, 0x53, 0x5A, 0x00, 0x91, 0x54, 0x6A, 0x81,
    0x30, 0x81, 0x54, 0x6A, 0x10, 0x91, 0x4D, 0x65, 0x81, 0x0B, 0xB1, 0x01,
    0x08, 0x60, 0xB1, 0x01, 0x10, 0x81, 0x40, 0xB1, 0x01, 0x19, 0x81, 0x40,
    0xB1, 0x01, 0x20, 0x81, 0x40, 0xB1, 0x01, 0x27, 0x81, 0x40, 0xB1, 0x01,
    0x30, 0x81, 0x40, 0xB1, 0x01, 0x38, 0x81, 0x40, 0xB1, 0x01, 0x40, 0x81,
    0x25, 0x81, 0x4D, 0x65, 0x1B, 0xB1, 0x01, 0x00, 0x81, 0x35, 0x91, 0x4D,
    0x66, 0x81, 0x10, 0x81, 0x4D, 0x66, 0x10, 0x91, 0x4D, 0x62, 0x81, 0x50,
    0x81, 0x4D, 0x62, 0x10, 0x91, 0x4F, 0x62, 0x81, 0x10, 0x81, 0x4F, 0x62,
    0x10, 0x91, 0x4F, 0x64, 0x81, 0x50, 0x81, 0x4F, 0x64, 0x10, 0x91, 0x51,
    0x5E, 0x81, 0x10, 0x81, 0x51, 0x5E, 0x20, 0x91, 0x51, 0x62, 0x81, 0x40,
    0x81, 0x51, 0x62, 0x00, 0x91, 0x53, 0x60, 0x81, 0x20, 0x81, 0x53, 0x60,
    0x10, 0x91, 0x4C, 0x6C, 0x81, 0x1B, 0xB1, 0x01, 0x08, 0x60, 0xB1, 0x01,
    0x10, 0x81, 0x40, 0xB1, 0x01, 0x19, 0x81, 0x40, 0xB1, 0x01, 0x20, 0x81,
    0x40, 0xB1, 0x01, 0x27, 0x81, 0x40, 0xB1, 0x01, 0x30, 0x81, 0x40, 0xB1,
    0x01, 0x38, 0x81, 0x40, 0xB1, 0x01, 0x40, 0x81, 0x40, 0xB1, 0x01, 0x00,
    0x25, 0x81, 0x4C, 0x6C, 0x82, 0x30, 0x91, 0x4C, 0x6D, 0x81, 0x40, 0x91,
    0x4D, 0x6C, 0x10, 0x81, 0x4C, 0x6D, 0x81, 0x30, 0x81, 0x4D, 0x6C, 0x10,
    0x91, 0x4F, 0x63, 0x84, 0x40, 0x81, 0x4F, 0x63, 0x00, 0x91, 0x58, 0x69,
    0x81, 0x40, 0x81, 0x58, 0x69, 0x00, 0x91, 0x51, 0x62, 0x52, 0xB1, 0x01,
    0x08, 0x60, 0xB1, 0x01, 0x10, 0x81, 0x40, 0xB1, 0x01, 0x19, 0x81, 0x40,
    0xB1, 0x01, 0x20, 0x81, 0x40, 0xB1, 0x01, 0x27, 0x81, 0x40, 0xB1, 0x01,
    0x30, 0x81, 0x40, 0xB1, 0x01, 0x38, 0x81, 0x40, 0xB1, 0x01, 0x40, 0x81,
    0x40, 0xB1, 0x01, 0x00, 0x0E, 0x81, 0x51, 0x62, 0x81, 0x30, 0x91, 0x51,
    0x5E, 0x81, 0x10, 0x81, 0x51, 0x5E, 0x20, 0x91, 0x51, 0x5E, 0x81, 0x40,
    0x81, 0x51, 0x5E, 0x10, 0x91, 0x53, 0x60, 0x81, 0x20, 0x81, 0x53, 0x60,
    0x10, 0x91, 0x53, 0x5C, 0x81, 0x40, 0x81, 0x53, 0x5C, 0x10, 0x91, 0x54,
    0x67, 0x81, 0x20, 0x81, 0x54, 0x67, 0x10, 0x91, 0x54, 0x5A, 0x81, 0x40,
    0x81, 0x54, 0x5A, 0x10, 0x91, 0x56, 0x66, 0x81, 0x30, 0x81, 0x56, 0x66,
    0x00, 0x91, 0x4F, 0x60, 0x81, 0x2F, 0xB1, 0x01, 0x08, 0x60, 0xB1, 0x01,
    0x10, 0x81, 0x40, 0xB1, 0x01, 0x19, 0x81, 0x40, 0xB1, 0x01, 0x20, 0x81,
    0x40, 0xB1, 0x01, 0x27, 0x81, 0x40, 0xB1, 0x01, 0x30, 0x81, 0x40, 0xB1,
    0x01, 0x38, 0x81, 0x40, 0xB1, 0x01, 0x40, 0x81, 0x40, 0xB1, 0x01, 0x00,
    0x01, 0x81, 0x4F, 0x60, 0x81, 0x00, 0x91, 0x4F, 0x5A, 0x81, 0x10, 0x81,
    0x4F, 0x5A, 0x20, 0x91, 0x4F, 0x65, 0x81, 0x40, 0x81, 0x4F, 0x65, 0x10,
    0x91, 0x51, 0x5A, 0x81, 0x20, 0x81, 0x51, 0x5A, 0x10, 0x91, 0x51, 0x6C,
    0x81, 0x40, 0x81, 0x51, 0x6C, 0x10, 0x91, 0x53, 0x5B, 0x81, 0x20, 0x81,
    0x53, 0x5B, 0x20, 0x91, 0x53, 0x5A, 0x81, 0x30, 0x81, 0x53, 0x5A, 0x10,
    0x91, 0x54, 0x5A, 0x81, 0x20, 0x81, 0x54, 0x5A, 0x20, 0x91, 0x54, 0x66,
    0x5B, 0xB1, 0x01, 0x08, 0x60, 0xB1, 0x01, 0x10, 0x81, 0x40, 0xB1, 0x01,
    0x19, 0x81, 0x40, 0xB1, 0x01, 0x20, 0x81, 0x40, 0xB1, 0x01, 0x27, 0x81,
    0x40, 0xB1, 0x01, 0x30, 0x81, 0x40, 0xB1, 0x01, 0x38, 0x81, 0x40, 0xB1,
    0x01, 0x40, 0x81, 0x15, 0x81, 0x54, 0x66, 0x2B, 0xB1, 0x01, 0x00, 0x81,
    0x45, 0x91, 0x51, 0x5C, 0x81, 0x10, 0x81, 0x51, 0x5C, 0x20, 0x91, 0x51,
    0x64, 0x81, 0x40, 0x81, 0x51, 0x64, 0x10, 0x91, 0x53, 0x63, 0x81, 0x20,
    0x81, 0x53, 0x63, 0x20, 0x91, 0x53, 0x5F, 0x81, 0x30, 0x81, 0x53, 0x5F,
    0x10, 0x91, 0x54, 0x5C, 0x81, 0x20, 0x81, 0x54, 0x5C, 0x20, 0x91, 0x54,
    0x5C, 0x81, 0x20, 0x81, 0x54, 0x5C, 0x20, 0x91, 0x56, 0x68, 0x81, 0x20,
    0x81, 0x56, 0x68, 0x20, 0x91, 0x56, 0x68, 0x81, 0x00, 0xB1, 0x01, 0x08,
    0x60, 0xB1, 0x01, 0x10, 0x81, 0x40, 0xB1, 0x01, 0x19, 0x81, 0x40, 0xB1,
    0x01, 0x20, 0x81, 0x40, 0xB1, 0x01, 0x27, 0x81, 0x40, 0xB1, 0x01, 0x30,
    0x81, 0x40, 0xB1, 0x01, 0x38, 0x81, 0x40, 0xB1, 0x01, 0x40, 0x81, 0x40,
    0xB1, 0x01, 0x00, 0x30, 0x81, 0x56, 0x68, 0x82, 0x40, 0x91, 0x58, 0x6D,
    0x81, 0x50, 0x81, 0x58, 0x6D, 0x00, 0x91, 0x59, 0x68, 0x82, 0x50, 0x81,
    0x59, 0x68, 0x10, 0x91, 0x5B, 0x67, 0x86, 0x10, 0x91, 0x59, 0x63, 0x10,
    0x81, 0x5B, 0x67, 0x81, 0x20, 0x91, 0x58, 0x6A, 0x10, 0x81, 0x59, 0x63,
    0x81, 0x20, 0x81, 0x58, 0x6A, 0x00, 0x91, 0x5B, 0x61, 0x81, 0x40, 0x81,
    0x5B, 0x61, 0x00, 0x91, 0x59, 0x6C, 0x10, 0x81, 0x59, 0x6C, 0x00, 0x91,
    0x59, 0x5D, 0x81, 0x30, 0x81, 0x59, 0x5D, 0x10, 0x91, 0x51, 0x6D, 0x81,
    0x24, 0xB1, 0x01, 0x08, 0x60, 0xB1, 0x01, 0x10, 0x81, 0x40, 0xB1, 0x01,
    0x19, 0x81, 0x40, 0xB1, 0x01, 0x20, 0x81, 0x40, 0xB1, 0x01, 0x27, 0x81,
    0x40, 0xB1, 0x01, 0x30, 0x81, 0x40, 0xB1, 0x01, 0x38, 0x7B, 0xB1, 0x01,
    0x00, 0x01, 0x91, 0x56, 0x6B, 0x10, 0x81, 0x51, 0x6D, 0x81, 0x20, 0x81,
    0x56, 0x6B, 0x10, 0x91, 0x58, 0x68, 0x81, 0x30, 0x81, 0x58, 0x68, 0x10,
    0x91, 0x59, 0x68, 0x84, 0x30, 0x81, 0x59, 0x68, 0x10, 0x91, 0x58, 0x67,
    0x81, 0x40, 0x81, 0x58, 0x67, 0x00, 0x91, 0x56, 0x64, 0x81, 0x40, 0x91,
    0x59, 0x65, 0x20, 0x81, 0x56, 0x64, 0x81, 0x10, 0x81, 0x59, 0x65, 0x10,
    0x91, 0x58, 0x5E, 0x81, 0x30, 0x81, 0x58, 0x5E, 0x10, 0x91, 0x4F, 0x65,
    0x81, 0x04, 0xB1, 0x01, 0x08, 0x60, 0xB1, 0x01, 0x10, 0x81, 0x40, 0xB1,
    0x01, 0x19, 0x81, 0x40, 0xB1, 0x01, 0x20, 0x81, 0x40, 0xB1, 0x01, 0x27,
    0x81, 0x40, 0xB1, 0x01, 0x30, 0x81, 0x40, 0xB1, 0x01, 0x38, 0x81, 0x1B,
    0xB1, 0x01, 0x00, 0x01, 0x91, 0x51, 0x5E, 0x20, 0x81, 0x4F, 0x65, 0x81,
    0x10, 0x81, 0x51, 0x5E, 0x10, 0x91, 0x53, 0x62, 0x81, 0x40, 0x81, 0x53,
    0x62, 0x00, 0x91, 0x54, 0x66, 0x84, 0x30, 0x81, 0x54, 0x66, 0x10, 0x91,
    0x53, 0x5A, 0x81, 0x30, 0x81, 0x53, 0x5A, 0x10, 0x91, 0x54, 0x67, 0x81,
    0x40, 0x81, 0x54, 0x67, 0x00, 0x91, 0x58, 0x5B, 0x81, 0x40, 0x81, 0x58,
    0x5B, 0x00, 0x91, 0x56, 0x5E, 0x81, 0x40, 0x91, 0x51, 0x5A, 0x10, 0x81,
    0x56, 0x5E, 0x84, 0x30, 0x81, 0x51, 0x5A, 0x00, 0x91, 0x53, 0x5B, 0x81,
    0x40, 0x81, 0x53, 0x5B, 0x00, 0x91, 0x54, 0x66, 0x81, 0x40, 0x81, 0x54,
    0x66, 0x00, 0x91, 0x58, 0x68, 0x81, 0x30, 0x81, 0x58, 0x68, 0x10, 0x91,
    0x56, 0x6B, 0x81, 0x40, 0x91, 0x51, 0x68, 0x10, 0x81, 0x56, 0x6B, 0x84,
    0x30, 0x81, 0x51, 0x68, 0x10, 0x91, 0x4D, 0x65, 0x82, 0x60, 0x81, 0x4D,
    0x65, 0x00, 0x91, 0x4F, 0x5F, 0x83, 0x00, 0x81, 0x4F, 0x5F, 0x10, 0x91,
    0x51, 0x69, 0x81, 0x40, 0x81, 0x51, 0x69, 0x00, 0x91, 0x4F, 0x5F, 0x81,
    0x0D, 0xB1, 0x01, 0x08, 0x60, 0xB1, 0x01, 0x10, 0x81, 0x40, 0xB1, 0x01,
    0x19, 0x81, 0x40, 0xB1, 0x01, 0x20, 0x81, 0x40, 0xB1, 0x01, 0x27, 0x81,
    0x40, 0xB1, 0x01, 0x30, 0x81, 0x40, 0xB1, 0x01, 0x38, 0x81, 0x40, 0xB1,
    0x01, 0x40, 0x81, 0x23, 0x81, 0x4F, 0x5F, 0x1D, 0xB1, 0x01, 0x00, 0x82,
    0x43, 0x91, 0x4C, 0x68, 0x81, 0x60, 0x91, 0x4D, 0x5A, 0x10, 0x81, 0x4C,
    0x68, 0x81, 0x20, 0x91, 0x4F, 0x5B, 0x10, 0x81, 0x4D, 0x5A, 0x84, 0x20,
    0x81, 0x4F, 0x5B, 0x00, 0x91, 0x58, 0x6B, 0x81, 0x40, 0x81, 0x58, 0x6B,
    0x10, 0x91, 0x51, 0x68, 0x4D, 0xB1, 0x01, 0x08, 0x60, 0xB1, 0x01, 0x10,
    0x81, 0x40, 0xB1, 0x01, 0x19, 0x81, 0x40, 0xB1, 0x01, 0x20, 0x81, 0x40,
    0xB1, 0x01, 0x27, 0x81, 0x40, 0xB1, 0x01, 0x30, 0x81, 0x40, 0xB1, 0x01,
    0x38, 0x81, 0x40, 0xB1, 0x01, 0x40, 0x63, 0x81, 0x51, 0x68, 0x5D, 0xB1,
    0x01, 0x00, 0x81, 0x53, 0x91, 0x51, 0x66, 0x81, 0x10, 0x81, 0x51, 0x66,
    0x20, 0x91, 0x51, 0x5C, 0x81, 0x40, 0x81, 0x51, 0x5C, 0x10, 0x91, 0x53,
    0x69, 0x81, 0x20, 0x81, 0x53, 0x69, 0x10, 0x91, 0x53, 0x61, 0x81, 0x40,
    0x81, 0x53, 0x61, 0x10, 0x91, 0x54, 0x62, 0x81, 0x20, 0x81, 0x54, 0x62,
    0x10, 0x91, 0x54, 0x5B, 0x81, 0x40, 0x81, 0x54, 0x5B, 0x10, 0x91, 0x56,
    0x5B, 0x81, 0x30, 0x81, 0x56, 0x5B, 0x00, 0x91, 0x4F, 0x6B, 0x81, 0x6A,
    0xB1, 0x01, 0x08, 0x60, 0xB1, 0x01, 0x10, 0x81, 0x40, 0xB1, 0x01, 0x19,
    0x81, 0x40, 0xB1, 0x01, 0x20, 0x81, 0x40, 0xB1, 0x01, 0x27, 0x81, 0x40,
    0xB1, 0x01, 0x30, 0x81, 0x40, 0xB1, 0x01, 0x38, 0x81, 0x40, 0xB1, 0x01,
    0x40, 0x81, 0x06, 0x81, 0x4F, 0x6B, 0x3A, 0xB1, 0x01, 0x00, 0x46, 0x91,
    0x4F, 0x5E, 0x81, 0x10, 0x81, 0x4F, 0x5E, 0x20, 0x91, 0x4F, 0x62, 0x81,
    0x40, 0x81, 0x4F, 0x62, 0x10, 0x91, 0x51, 0x6C, 0x81, 0x20, 0x81, 0x51,
    0x6C, 0x10, 0x91, 0x51, 0x67, 0x81, 0x40, 0x81, 0x51, 0x67, 0x10, 0x91,
    0x53, 0x5D, 0x81, 0x20, 0x81, 0x53, 0x5D, 0x20, 0x91, 0x53, 0x5E, 0x81,
    0x30, 0x81, 0x53, 0x5E, 0x10, 0x91, 0x54, 0x66, 0x81, 0x20, 0x81, 0x54,
    0x66, 0x20, 0x91, 0x54, 0x6C, 0x81, 0x12, 0xB1, 0x01, 0x08, 0x60, 0xB1,
    0x01, 0x10, 0x81, 0x40, 0xB1, 0x01, 0x19, 0x81, 0x40, 0xB1, 0x01, 0x20,
    0x81, 0x40, 0xB1, 0x01, 0x27, 0x81, 0x40, 0xB1, 0x01, 0x30, 0x81, 0x40,
    0xB1, 0x01, 0x38, 0x81, 0x40, 0xB1, 0x01, 0x40, 0x5E, 0x81, 0x54, 0x6C,
    0x62, 0xB1, 0x01, 0x00, 0x81, 0x0E, 0x91, 0x51, 0x5B, 0x81, 0x10, 0x81,
    0x51, 0x5B, 0x20, 0x91, 0x51, 0x6C, 0x81, 0x40, 0x81, 0x51, 0x6C, 0x10,
    0x91, 0x53, 0x5F, 0x81, 0x20, 0x81, 0x53, 0x5F, 0x20, 0x91, 0x53, 0x6D,
    0x81, 0x30, 0x81, 0x53, 0x6D, 0x10, 0x91, 0x54, 0x65, 0x81, 0x10, 0x81,
    0x54, 0x65, 0x30, 0x91, 0x54, 0x61, 0x81, 0x20, 0x81, 0x54, 0x61, 0x20,
    0x91, 0x56, 0x65, 0x81, 0x20, 0x81, 0x56, 0x65, 0x20, 0x91, 0x56, 0x63,
    0x81, 0x68, 0xB1, 0x01, 0x08, 0x60, 0xB1, 0x01, 0x10, 0x81, 0x40, 0xB1,
    0x01, 0x19, 0x81, 0x40, 0xB1, 0x01, 0x20, 0x81, 0x40, 0xB1, 0x01, 0x27,
    0x81, 0x40, 0xB1, 0x01, 0x30, 0x81, 0x40, 0xB1, 0x01, 0x38, 0x81, 0x40,
    0xB1, 0x01, 0x40, 0x81, 0x08, 0x81, 0x56, 0x63, 0x38, 0xB1, 0x01, 0x00,
    0x82, 0x08, 0x91, 0x58, 0x5A, 0x81, 0x50, 0x81, 0x58, 0x5A, 0x00, 0x91,
    0x59, 0x5A, 0x82, 0x50, 0x81, 0x59, 0x5A, 0x10, 0x91, 0x5B, 0x6B, 0x86,
    0x10, 0x91, 0x59, 0x5C, 0x10, 0x81, 0x5B, 0x6B, 0x81, 0x20, 0x91, 0x58,
    0x5E, 0x10, 0x81, 0x59, 0x5C, 0x81, 0x20, 0x81, 0x58, 0x5E, 0x00, 0x91,
    0x5B, 0x62, 0x81, 0x40, 0x81, 0x5B, 0x62, 0x00, 0x91, 0x59, 0x60, 0x10,
    0x81, 0x59, 0x60, 0x00, 0x91, 0x59, 0x64, 0x81, 0x30, 0x81, 0x59, 0x64,
    0x10, 0x91, 0x51, 0x6C, 0x81, 0x1B, 0xB1, 0x01, 0x08, 0x60, 0xB1, 0x01,
    0x10, 0x81, 0x40, 0xB1, 0x01, 0x19, 0x81, 0x40, 0xB1, 0x01, 0x20, 0x81,
    0x40, 0xB1, 0x01, 0x27, 0x81, 0x40, 0xB1, 0x01, 0x30, 0x81, 0x40, 0xB1,
    0x01, 0x38, 0x81, 0x04, 0xB1, 0x01, 0x00, 0x01, 0x91, 0x56, 0x6B, 0x10,
    0x81, 0x51, 0x6C, 0x81, 0x20, 0x81, 0x56, 0x6B, 0x10, 0x91, 0x58, 0x68,
    0x81, 0x30, 0x81, 0x58, 0x68, 0x10, 0x91, 0x59, 0x5D, 0x84, 0x30, 0x81,
    0x59, 0x5D, 0x10, 0x91, 0x58, 0x69, 0x81, 0x40, 0x81, 0x58, 0x69, 0x10,
    0x91, 0x56, 0x66, 0x81, 0x30, 0x91, 0x59, 0x5B, 0x20, 0x81, 0x56, 0x66,
    0x81, 0x10, 0x81, 0x59, 0x5B, 0x10, 0x91, 0x58, 0x6D, 0x81, 0x30, 0x81,
    0x58, 0x6D, 0x10, 0x91, 0x4F, 0x62, 0x51, 0xB1, 0x01, 0x08, 0x60, 0xB1,
    0x01, 0x10, 0x81, 0x40, 0xB1, 0x01, 0x19, 0x81, 0x40, 0xB1, 0x01, 0x20,
    0x81, 0x40, 0xB1, 0x01, 0x27, 0x81, 0x40, 0xB1, 0x01, 0x30, 0x81, 0x40,
    0xB1, 0x01, 0x38, 0x81, 0x40, 0xB1, 0x01, 0x40, 0x1F, 0xB1, 0x01, 0x00,
    0x00, 0x91, 0x51, 0x6B, 0x10, 0x81, 0x4F, 0x62, 0x81, 0x20, 0x81, 0x51,
    0x6B, 0x00, 0x91, 0x53, 0x65, 0x81, 0x40, 0x81, 0x53, 0x65, 0x00, 0x91,
    0x54, 0x68, 0x84, 0x30, 0x81, 0x54, 0x68, 0x10, 0x91, 0x53, 0x5D, 0x81,
    0x30, 0x81, 0x53, 0x5D, 0x10, 0x91, 0x54, 0x60, 0x81, 0x40, 0x81, 0x54,
    0x60, 0x00, 0x91, 0x58, 0x5E, 0x81, 0x40, 0x81, 0x58, 0x5E, 0x00, 0x91,
    0x56, 0x5B, 0x81, 0x40, 0x91, 0x51, 0x5F, 0x10, 0x81, 0x56, 0x5B, 0x84,
    0x30, 0x81, 0x51, 0x5F, 0x00, 0x91, 0x53, 0x5C, 0x81, 0x40, 0x81, 0x53,
    0x5C, 0x00, 0x91, 0x54, 0x6D, 0x81, 0x40, 0x81, 0x54, 0x6D, 0x00, 0x91,
    0x58, 0x64, 0x81, 0x30, 0x81, 0x58, 0x64, 0x10, 0x91, 0x56, 0x61, 0x81,
    0x40, 0x91, 0x51, 0x61, 0x20, 0x81, 0x56, 0x61, 0x82, 0x70, 0x81, 0x51,
    0x61, 0x82, 0x70, 0x91, 0x51, 0x5A, 0x84, 0x40, 0x81, 0x51, 0x5A, 0x10,
    0x91, 0x54, 0x6B, 0x81, 0x30, 0x81, 0x54, 0x6B, 0x00, 0x91, 0x54, 0x6D,
    0x81, 0x21, 0xB1, 0x01, 0x08, 0x60, 0xB1, 0x01, 0x10, 0x81, 0x40, 0xB1,
    0x01, 0x19, 0x81, 0x40, 0xB1, 0x01, 0x20, 0x81, 0x40, 0xB1, 0x01, 0x27,
    0x81, 0x40, 0xB1, 0x01, 0x30, 0x81, 0x40, 0xB1, 0x01, 0x38, 0x81, 0x40,
    0xB1, 0x01, 0x00, 0x2F, 0x91, 0x56, 0x6D, 0x10, 0x81, 0x54, 0x6D, 0x10,
    0x81, 0x56, 0x6D, 0x00, 0x91, 0x58, 0x5F, 0x10, 0x81, 0x58, 0x5F, 0x00,
    0x91, 0x59, 0x6A, 0x10, 0x81, 0x59, 0x6A, 0x00, 0x91, 0x5B, 0x67, 0x20,
    0x91, 0x5D, 0x64, 0x10, 0x81, 0x5D, 0x64, 0x00, 0x81, 0x5B, 0x67, 0x00,
    0x91, 0x5F, 0x5C, 0x10, 0x91, 0x60, 0x57, 0x10, 0x81, 0x5F, 0x5C, 0x59,
    0xB1, 0x01, 0x08, 0x60, 0xB1, 0x01, 0x10, 0x81, 0x17, 0xB1, 0x01, 0x00,
    0x29, 0xB1, 0x01, 0x19, 0x81, 0x40, 0xB1, 0x01, 0x20, 0x81, 0x40, 0xB1,
    0x01, 0x27, 0x81, 0x40, 0xB1, 0x01, 0x30, 0x57, 0x81, 0x60, 0x57, 0x2F,
    0xB1, 0x01, 0x00, 0x01, 0x91, 0x60, 0x5C, 0x82, 0x40, 0x81, 0x60, 0x5C,
    0x30, 0x91, 0x60, 0x59, 0x20, 0xB1, 0x07, 0x72, 0x81, 0x0F, 0xB1, 0x01,
    0x08, 0x60, 0xB1, 0x01, 0x0C, 0x81, 0x11, 0xB1, 0x07, 0x6A, 0x2F, 0xB1,
    0x01, 0x11, 0x81, 0x40, 0xB1, 0x01, 0x16, 0x81, 0x11, 0xB1, 0x07, 0x5F,
    0x2F, 0xB1, 0x01, 0x1A, 0x81, 0x40, 0xB1, 0x01, 0x1F, 0x81, 0x11, 0xB1,
    0x07, 0x54, 0x2F, 0xB1, 0x01, 0x25, 0x81, 0x40, 0xB1, 0x01, 0x2B, 0x81,
    0x11, 0xB1, 0x07, 0x50, 0x00, 0xB1, 0x01, 0x00, 0x00, 0xB1, 0x01, 0x33,
    0x81, 0x40, 0xB1, 0x01, 0x37, 0x81, 0x40, 0xB1, 0x07, 0x4B, 0x00, 0xB1,
    0x01, 0x3B, 0x81, 0x40, 0xB1, 0x01, 0x40, 0x81, 0x40, 0xB1, 0x07, 0x45,
    0x83, 0x00, 0xB1, 0x07, 0x36, 0x81, 0x40, 0x81, 0x60, 0x59, 0x81, 0x40,
    0xB1, 0x07, 0x7B, 0x8C, 0x00, 0xFF, 0x2F, 0x00, 0x4D, 0x54, 0x72, 0x6B,
    0x00, 0x00, 0x02, 0x9C, 0x00, 0xFF, 0x03, 0x06, 0x63, 0x65, 0x6C, 0x65,
    0x73, 0x74, 0x85, 0x1F, 0xB2, 0x79, 0x00, 0x61, 0xB2, 0x00, 0x00, 0x01,
    0xB2, 0x20, 0x02, 0x01, 0xC2, 0x08, 0x82, 0x7E, 0xB2, 0x07, 0x73, 0x81,
    0x40, 0xB2, 0x0A, 0x7F, 0x60, 0xB2, 0x5B, 0x64, 0x8C, 0x60, 0x92, 0x48,
    0x30, 0x81, 0x30, 0x82, 0x48, 0x30, 0x00, 0x92, 0x4A, 0x38, 0x81, 0x30,
    0x82, 0x4A, 0x38, 0x10, 0x92, 0x4C, 0x3C, 0x81, 0x30, 0x82, 0x4C, 0x3C,
    0x10, 0x92, 0x4F, 0x3C, 0x84, 0x30, 0x82, 0x4F, 0x3C, 0x10, 0x92, 0x48,
    0x3C, 0x81, 0x40, 0x82, 0x48, 0x3C, 0x00, 0x92, 0x4A, 0x40, 0x81, 0x30,
    0x82, 0x4A, 0x40, 0x00, 0x92, 0x4C, 0x44, 0x81, 0x30, 0x82, 0x4C, 0x44,
    0x10, 0x92, 0x4F, 0x40, 0x83, 0x10, 0x92, 0x4C, 0x44, 0x10, 0x82, 0x4F,
    0x40, 0x82, 0x70, 0x92, 0x47, 0x40, 0x10, 0x82, 0x4C, 0x44, 0x50, 0x92,
    0x48, 0x38, 0x10, 0x82, 0x47, 0x40, 0x40, 0x82, 0x48, 0x38, 0x10, 0x92,
    0x4A, 0x44, 0x81, 0x20, 0x82, 0x4A, 0x44, 0x10, 0x92, 0x4C, 0x44, 0x81,
    0x40, 0x82, 0x4C, 0x44, 0x10, 0x92, 0x4F, 0x44, 0x84, 0x50, 0x82, 0x4F,
    0x44, 0x00, 0x92, 0x4C, 0x40, 0x82, 0x70, 0x82, 0x4C, 0x40, 0x00, 0x92,
    0x4A, 0x48, 0x83, 0x00, 0x92, 0x4C, 0x3C, 0x10, 0x82, 0x4A, 0x48, 0x81,
    0x20, 0x82, 0x4C, 0x3C, 0x20, 0x92, 0x4C, 0x3C, 0x8B, 0x60, 0x82, 0x4C,
    0x3C, 0xB9, 0x00, 0x92, 0x4D, 0x44, 0x40, 0x82, 0x4D, 0x44, 0x20, 0x92,
    0x4C, 0x3C, 0x40, 0x82, 0x4C, 0x3C, 0x10, 0x92, 0x4A, 0x48, 0x50, 0x82,
    0x4A, 0x48, 0x10, 0x92, 0x4C, 0x40, 0x50, 0x82, 0x4C, 0x40, 0x10, 0x92,
    0x53, 0x3C, 0x85, 0x20, 0x82, 0x53, 0x3C, 0xA2, 0x00, 0x92, 0x54, 0x48,
    0x81, 0x30, 0x82, 0x54, 0x48, 0x20, 0x92, 0x5B, 0x44, 0x81, 0x30, 0x82,
    0x5B, 0x44, 0x00, 0x92, 0x5D, 0x4C, 0x87, 0x20, 0x82, 0x5D, 0x4C, 0x8D,
    0x70, 0x92, 0x56, 0x44, 0x81, 0x30, 0x82, 0x56, 0x44, 0x10, 0x92, 0x58,
    0x44, 0x81, 0x30, 0x82, 0x58, 0x44, 0x10, 0x92, 0x5B, 0x40, 0x82, 0x70,
    0x82, 0x5B, 0x40, 0x00, 0x92, 0x56, 0x44, 0x81, 0x40, 0x82, 0x56, 0x44,
    0x10, 0x92, 0x54, 0x3C, 0x81, 0x30, 0x82, 0x54, 0x3C, 0x00, 0x92, 0x56,
    0x44, 0x60, 0x82, 0x56, 0x44, 0x10, 0x92, 0x58, 0x40, 0x50, 0x82, 0x58,
    0x40, 0x00, 0x92, 0x5B, 0x40, 0x83, 0x00, 0x82, 0x5B, 0x40, 0x81, 0xA0,
    0x40, 0x92, 0x51, 0x40, 0x83, 0x00, 0x92, 0x58, 0x40, 0x10, 0x82, 0x51,
    0x40, 0x82, 0x70, 0x82, 0x58, 0x40, 0x00, 0x92, 0x59, 0x40, 0x82, 0x70,
    0x82, 0x59, 0x40, 0x00, 0x92, 0x51, 0x3C, 0x86, 0x40, 0x82, 0x51, 0x3C,
    0x88, 0x40, 0x92, 0x4F, 0x3C, 0x83, 0x10, 0x82, 0x4F, 0x3C, 0x00, 0x92,
    0x56, 0x40, 0x82, 0x70, 0x82, 0x56, 0x40, 0x10, 0x92, 0x58, 0x40, 0x82,
    0x70, 0x82, 0x58, 0x40, 0x00, 0x92, 0x4C, 0x40, 0x87, 0x00, 0x82, 0x4C,
    0x40, 0x85, 0x20, 0x92, 0x4A, 0x3C, 0x85, 0x60, 0x92, 0x51, 0x38, 0x30,
    0x82, 0x4A, 0x3C, 0x90, 0x10, 0x82, 0x51, 0x38, 0x84, 0x50, 0x92, 0x4F,
    0x3C, 0x83, 0x10, 0x82, 0x4F, 0x3C, 0x00, 0x92, 0x51, 0x3C, 0x82, 0x60,
    0x82, 0x51, 0x3C, 0x10, 0x92, 0x4F, 0x3C, 0x85, 0x70, 0x82, 0x4F, 0x3C,
    0x95, 0x20, 0x92, 0x51, 0x50, 0x81, 0x40, 0x92, 0x53, 0x48, 0x10, 0x82,
    0x51, 0x50, 0x81, 0x20, 0x92, 0x54, 0x48, 0x10, 0x82, 0x53, 0x48, 0x81,
    0x20, 0x82, 0x54, 0x48, 0x10, 0x92, 0x56, 0x44, 0x81, 0x40, 0x82, 0x56,
    0x44, 0x00, 0x92, 0x53, 0x48, 0x89, 0x00, 0x82, 0x53, 0x48, 0x10, 0x92,
    0x51, 0x50, 0x83, 0x00, 0x82, 0x51, 0x50, 0x00, 0x92, 0x4F, 0x4C, 0x87,
    0x20, 0x92, 0x51, 0x4C, 0x10, 0x82, 0x4F, 0x4C, 0x81, 0x30, 0x82, 0x51,
    0x4C, 0x10, 0x92, 0x54, 0x44, 0x81, 0x30, 0x82, 0x54, 0x44, 0x10, 0x92,
    0x56, 0x44, 0x81, 0x40, 0x92, 0x58, 0x48, 0x20, 0x82, 0x56, 0x44, 0x8B,
    0x50, 0x92, 0x5A, 0x44, 0x10, 0x82, 0x58, 0x48, 0x8C, 0x00, 0x82, 0x5A,
    0x44, 0x20, 0x92, 0x59, 0x4C, 0x8B, 0x60, 0x82, 0x59, 0x4C, 0x20, 0x92,
    0x58, 0x50, 0x87, 0x20, 0x82, 0x58, 0x50, 0x00, 0x92, 0x54, 0x4C, 0x81,
    0x40, 0x82, 0x54, 0x4C, 0x00, 0x92, 0x56, 0x48, 0x81, 0x40, 0x82, 0x56,
    0x48, 0x00, 0x92, 0x58, 0x44, 0x81, 0x30, 0x82, 0x58, 0x44, 0x10, 0x92,
    0x57, 0x4C, 0x86, 0x10, 0x82, 0x57, 0x4C, 0x00, 0x92, 0x56, 0x48, 0x81,
    0x30, 0x92, 0x57, 0x4C, 0x10, 0x82, 0x56, 0x48, 0x81, 0x20, 0x82, 0x57,
    0x4C, 0x10, 0x92, 0x59, 0x44, 0x82, 0x70, 0x82, 0x59, 0x44, 0x20, 0x92,
    0x5B, 0x48, 0x8F, 0x40, 0x82, 0x5B, 0x48, 0x94, 0x40, 0xFF, 0x2F, 0x00,
    0x4D, 0x54, 0x72, 0x6B, 0x00, 0x00, 0x05, 0x5D, 0x00, 0xFF, 0x03, 0x07,
    0x73, 0x74, 0x72, 0x69, 0x6E, 0x67, 0x73, 0x85, 0x20, 0xB3, 0x79, 0x00,
    0x60, 0xB3, 0x07, 0x62, 0x00, 0xC3, 0x30, 0x81, 0x40, 0xB3, 0x0A, 0x0A,
    0x60, 0xB3, 0x5B, 0x5E, 0x83, 0x60, 0x93, 0x30, 0x4C, 0x8B, 0x50, 0x83,
    0x30, 0x4C, 0x20, 0x93, 0x30, 0x58, 0x00, 0x93, 0x3C, 0x28, 0x00, 0x93,
    0x48, 0x28, 0x00, 0x93, 0x4C, 0x28, 0x8B, 0x50, 0x83, 0x30, 0x58, 0x10,
    0x83, 0x4C, 0x28, 0x10, 0x83, 0x48, 0x28, 0x20, 0x93, 0x30, 0x58, 0x00,
    0x93, 0x47, 0x28, 0x00, 0x93, 0x4C, 0x28, 0x84, 0x30, 0x93, 0x43, 0x28,
    0x87, 0x20, 0x83, 0x30, 0x58, 0x20, 0x83, 0x43, 0x28, 0x00, 0x93, 0x30,
    0x58, 0x00, 0x93, 0x45, 0x28, 0x00, 0x93, 0x40, 0x28, 0x00, 0x93, 0x48,
    0x28, 0x10, 0x83, 0x47, 0x28, 0x8B, 0x40, 0x83, 0x30, 0x58, 0x10, 0x83,
    0x45, 0x28, 0x30, 0x93, 0x30, 0x58, 0x00, 0x93, 0x43, 0x28, 0x83, 0x60,
    0x83, 0x30, 0x58, 0x88, 0x00, 0x83, 0x43, 0x28, 0x00, 0x83, 0x40, 0x28,
    0x10, 0x83, 0x48, 0x28, 0x00, 0x93, 0x45, 0x28, 0x00, 0x93, 0x48, 0x28,
    0x00, 0x93, 0x4D, 0x28, 0x20, 0x83, 0x4C, 0x28, 0x00, 0x83, 0x3C, 0x28,
    0x88, 0x20, 0x83, 0x4D, 0x28, 0x00, 0x83, 0x45, 0x28, 0x40, 0x93, 0x45,
    0x20, 0x00, 0x93, 0x4C, 0x20, 0x82, 0x70, 0x83, 0x48, 0x28, 0x10, 0x83,
    0x45, 0x20, 0x00, 0x93, 0x45, 0x20, 0x00, 0x93, 0x48, 0x20, 0x00, 0x93,
    0x4A, 0x20, 0x10, 0x83, 0x4C, 0x20, 0x85, 0x70, 0x93, 0x41, 0x20, 0x82,
    0x60, 0x83, 0x4A, 0x20, 0x00, 0x83, 0x45, 0x20, 0x20, 0x93, 0x45, 0x20,
    0x00, 0x93, 0x4D, 0x20, 0x20, 0x83, 0x41, 0x20, 0x82, 0x40, 0x83, 0x45,
    0x20, 0x20, 0x83, 0x4D, 0x20, 0x00, 0x93, 0x43, 0x20, 0x00, 0x93, 0x4C,
    0x20, 0x88, 0x60, 0x83, 0x4C, 0x20, 0x00, 0x83, 0x43, 0x20, 0x00, 0x83,
    0x48, 0x20, 0x20, 0x93, 0x43, 0x20, 0x00, 0x93, 0x48, 0x20, 0x00, 0x93,
    0x4A, 0x20, 0x82, 0x40, 0x83, 0x43, 0x20, 0x10, 0x83, 0x4A, 0x20, 0x00,
    0x83, 0x48, 0x20, 0x30, 0x93, 0x47, 0x20, 0x10, 0x93, 0x43, 0x20, 0x00,
    0x93, 0x4C, 0x20, 0x8B, 0x60, 0x83, 0x47, 0x20, 0x10, 0x83, 0x4C, 0x20,
    0x00, 0x93, 0x45, 0x20, 0x00, 0x93, 0x4D, 0x20, 0x00, 0x93, 0x48, 0x20,
    0x10, 0x83, 0x43, 0x20, 0x81, 0x10, 0x83, 0x48, 0x20, 0x20, 0x93, 0x48,
    0x20, 0x00, 0x93, 0x4A, 0x20, 0x89, 0x70, 0x83, 0x48, 0x20, 0x20, 0x83,
    0x45, 0x20, 0x10, 0x83, 0x4D, 0x20, 0x30, 0x93, 0x43, 0x20, 0x00, 0x93,
    0x47, 0x20, 0x8B, 0x30, 0x83, 0x4A, 0x20, 0x20, 0x83, 0x47, 0x20, 0x20,
    0x93, 0x3C, 0x20, 0x00, 0x93, 0x4C, 0x20, 0x10, 0x93, 0x47, 0x20, 0x8E,
    0x50, 0x83, 0x4C, 0x20, 0x00, 0x83, 0x3C, 0x20, 0x20, 0x83, 0x43, 0x20,
    0x00, 0x93, 0x3C, 0x20, 0x00, 0x93, 0x43, 0x20, 0x00, 0x93, 0x4C, 0x20,
    0x81, 0x40, 0x83, 0x4C, 0x20, 0x00, 0x93, 0x4D, 0x20, 0x50, 0x83, 0x47,
    0x20, 0x60, 0x83, 0x4D, 0x20, 0x10, 0x93, 0x4F, 0x20, 0x85, 0x50, 0x83,
    0x4F, 0x20, 0x00, 0x83, 0x43, 0x20, 0x30, 0x83, 0x3C, 0x20, 0x00, 0x93,
    0x41, 0x20, 0x00, 0x93, 0x45, 0x20, 0x00, 0x93, 0x4D, 0x20, 0x00, 0x93,
    0x48, 0x23, 0x10, 0x93, 0x4C, 0x20, 0x10, 0x83, 0x4C, 0x20, 0x91, 0x50,
    0x83, 0x4D, 0x20, 0x10, 0x93, 0x4C, 0x20, 0x83, 0x00, 0x93, 0x4A, 0x20,
    0x10, 0x83, 0x4C, 0x20, 0x82, 0x50, 0x83, 0x4A, 0x20, 0x00, 0x83, 0x45,
    0x20, 0x10, 0x83, 0x41, 0x20, 0x10, 0x93, 0x43, 0x20, 0x00, 0x93, 0x4C,
    0x20, 0x00, 0x93, 0x3C, 0x20, 0x8F, 0x00, 0x93, 0x4F, 0x20, 0x87, 0x10,
    0x83, 0x4C, 0x20, 0x81, 0x60, 0x83, 0x4F, 0x20, 0x00, 0x83, 0x3C, 0x20,
    0x00, 0x83, 0x43, 0x20, 0x00, 0x83, 0x48, 0x23, 0x10, 0x93, 0x3E, 0x20,
    0x00, 0x93, 0x45, 0x20, 0x00, 0x93, 0x4A, 0x23, 0x10, 0x93, 0x4E, 0x20,
    0x8B, 0x50, 0x83, 0x3E, 0x20, 0x20, 0x93, 0x3E, 0x20, 0x8C, 0x00, 0x93,
    0x43, 0x20, 0x00, 0x93, 0x47, 0x20, 0x00, 0x93, 0x4D, 0x20, 0x10, 0x83,
    0x4E, 0x20, 0x00, 0x83, 0x45, 0x20, 0x8C, 0x40, 0x83, 0x47, 0x20, 0x00,
    0x83, 0x3E, 0x20, 0x10, 0x83, 0x4D, 0x20, 0x00, 0x83, 0x43, 0x20, 0x00,
    0x83, 0x4A, 0x23, 0x82, 0x20, 0x93, 0x3C, 0x20, 0x00, 0x93, 0x48, 0x20,
    0x00, 0x93, 0x4C, 0x20, 0x81, 0x40, 0x83, 0x4C, 0x20, 0x10, 0x93, 0x4D,
    0x20, 0x82, 0x70, 0x83, 0x48, 0x20, 0x10, 0x83, 0x4D, 0x20, 0x00, 0x83,
    0x3C, 0x20, 0x00, 0x93, 0x3C, 0x20, 0x00, 0x93, 0x47, 0x20, 0x00, 0x93,
    0x4C, 0x20, 0x00, 0x93, 0x4F, 0x20, 0x85, 0x50, 0x83, 0x4C, 0x20, 0x10,
    0x83, 0x4F, 0x20, 0x20, 0x93, 0x4D, 0x20, 0x81, 0x40, 0x83, 0x4D, 0x20,
    0x00, 0x93, 0x4C, 0x20, 0x81, 0x30, 0x83, 0x4C, 0x20, 0x00, 0x93, 0x4F,
    0x20, 0x81, 0x40, 0x83, 0x3C, 0x20, 0x10, 0x93, 0x45, 0x20, 0x00, 0x93,
    0x48, 0x20, 0x00, 0x93, 0x4D, 0x20, 0x10, 0x83, 0x4F, 0x20, 0x00, 0x83,
    0x47, 0x20, 0x8B, 0x10, 0x83, 0x48, 0x20, 0x10, 0x83, 0x45, 0x20, 0x10,
    0x83, 0x4D, 0x20, 0x40, 0x93, 0x4F, 0x20, 0x00, 0x93, 0x43, 0x20, 0x00,
    0x93, 0x47, 0x20, 0x00, 0x93, 0x4A, 0x20, 0x8B, 0x40, 0x83, 0x47, 0x20,
    0x00, 0x83, 0x4F, 0x20, 0x20, 0x83, 0x4A, 0x20, 0x00, 0x83, 0x43, 0x20,
    0x10, 0x93, 0x43, 0x20, 0x00, 0x93, 0x48, 0x20, 0x00, 0x93, 0x4C, 0x20,
    0x8B, 0x50, 0x83, 0x4C, 0x20, 0x00, 0x83, 0x43, 0x20, 0x10, 0x83, 0x48,
    0x20, 0x30, 0x93, 0x45, 0x20, 0x00, 0x93, 0x48, 0x20, 0x00, 0x93, 0x4C,
    0x20, 0x8B, 0x50, 0x83, 0x45, 0x20, 0x10, 0x83, 0x4C, 0x20, 0x00, 0x83,
    0x48, 0x20, 0x10, 0x93, 0x45, 0x20, 0x00, 0x93, 0x4A, 0x20, 0x00, 0x93,
    0x4E, 0x20, 0x8B, 0x60, 0x83, 0x4A, 0x20, 0x00, 0x83, 0x45, 0x20, 0x10,
    0x83, 0x4E, 0x20, 0x20, 0x93, 0x48, 0x20, 0x00, 0x93, 0x4E, 0x20, 0x00,
    0x93, 0x45, 0x20, 0x00, 0x93, 0x4D, 0x20, 0x10, 0x83, 0x4E, 0x20, 0x8B,
    0x10, 0x83, 0x48, 0x20, 0x10, 0x83, 0x4D, 0x20, 0x00, 0x83, 0x45, 0x20,
    0x40, 0x93, 0x4C, 0x20, 0x00, 0x93, 0x43, 0x20, 0x00, 0x93, 0x47, 0x20,
    0x8C, 0x60, 0x83, 0x43, 0x20, 0x10, 0x83, 0x47, 0x20, 0x30, 0x83, 0x4C,
    0x20, 0x8A, 0x60, 0x93, 0x45, 0x20, 0x00, 0x93, 0x48, 0x20, 0x00, 0x93,
    0x4D, 0x20, 0x8C, 0x00, 0x93, 0x4C, 0x20, 0x40, 0x83, 0x4D, 0x20, 0x85,
    0x00, 0x83, 0x4C, 0x20, 0x40, 0x93, 0x4A, 0x20, 0x00, 0x93, 0x4D, 0x20,
    0x85, 0x40, 0x83, 0x48, 0x20, 0x00, 0x83, 0x45, 0x20, 0x10, 0x83, 0x4D,
    0x20, 0x00, 0x83, 0x4A, 0x20, 0x30, 0x93, 0x43, 0x20, 0x00, 0x93, 0x48,
    0x20, 0x00, 0x93, 0x4C, 0x20, 0x8B, 0x60, 0x83, 0x48, 0x20, 0x20, 0x93,
    0x47, 0x20, 0x8B, 0x00, 0x83, 0x47, 0x20, 0x40, 0x83, 0x43, 0x20, 0x20,
    0x83, 0x4C, 0x20, 0x20, 0x93, 0x42, 0x20, 0x00, 0x93, 0x45, 0x20, 0x00,
    0x93, 0x4A, 0x20, 0x97, 0x30, 0x83, 0x45, 0x20, 0x40, 0x83, 0x42, 0x20,
    0x10, 0x83, 0x4A, 0x20, 0x00, 0x93, 0x47, 0x20, 0x00, 0x93, 0x43, 0x20,
    0x00, 0x93, 0x4A, 0x20, 0x10, 0x83, 0x4A, 0x20, 0x8C, 0x60, 0x83, 0x43,
    0x20, 0x00, 0x83, 0x47, 0x20, 0x82, 0x10, 0x93, 0x43, 0x20, 0x00, 0x93,
    0x48, 0x20, 0x00, 0x93, 0x4C, 0x20, 0x81, 0x50, 0x93, 0x4D, 0x20, 0x82,
    0x60, 0x83, 0x48, 0x20, 0x10, 0x93, 0x47, 0x20, 0x10, 0x83, 0x4D, 0x20,
    0x00, 0x93, 0x4F, 0x20, 0x85, 0x70, 0x83, 0x4F, 0x20, 0x10, 0x93, 0x4D,
    0x20, 0x81, 0x20, 0x83, 0x4D, 0x20, 0x00, 0x83, 0x4C, 0x20, 0x20, 0x93,
    0x4C, 0x20, 0x81, 0x30, 0x83, 0x4C, 0x20, 0x10, 0x93, 0x4F, 0x20, 0x81,
    0x30, 0x83, 0x43, 0x20, 0x10, 0x93, 0x45, 0x20, 0x00, 0x93, 0x48, 0x20,
    0x00, 0x93, 0x4D, 0x20, 0x10, 0x83, 0x4F, 0x20, 0x00, 0x83, 0x47, 0x20,
    0x88, 0x60, 0x83, 0x4D, 0x20, 0x00, 0x93, 0x4C, 0x20, 0x81, 0x50, 0x93,
    0x4D, 0x20, 0x20, 0x83, 0x4C, 0x20, 0x70, 0x83, 0x48, 0x20, 0x00, 0x83,
    0x45, 0x20, 0x30, 0x93, 0x43, 0x20, 0x00, 0x93, 0x47, 0x20, 0x00, 0x93,
    0x4A, 0x20, 0x8B, 0x30, 0x83, 0x4D, 0x20, 0x20, 0x83, 0x47, 0x20, 0x10,
    0x83, 0x4A, 0x20, 0x10, 0x93, 0x48, 0x20, 0x00, 0x93, 0x4C, 0x20, 0x8B,
    0x40, 0x83, 0x43, 0x20, 0x20, 0x83, 0x4C, 0x20, 0x30, 0x93, 0x45, 0x20,
    0x00, 0x93, 0x4C, 0x20, 0x8B, 0x40, 0x83, 0x4C, 0x20, 0x10, 0x83, 0x45,
    0x20, 0x10, 0x83, 0x48, 0x20, 0x10, 0x93, 0x45, 0x20, 0x10, 0x93, 0x4A,
    0x20, 0x00, 0x93, 0x4E, 0x20, 0x8B, 0x50, 0x83, 0x4A, 0x20, 0x10, 0x83,
    0x4E, 0x20, 0x00, 0x83, 0x45, 0x20, 0x20, 0x93, 0x45, 0x20, 0x00, 0x93,
    0x48, 0x20, 0x00, 0x93, 0x4D, 0x20, 0x8B, 0x60, 0x83, 0x4D, 0x20, 0x00,
    0x83, 0x48, 0x20, 0x00, 0x83, 0x45, 0x20, 0x20, 0x93, 0x43, 0x20, 0x00,
    0x93, 0x48, 0x20, 0x00, 0x93, 0x4C, 0x20, 0x8B, 0x20, 0x83, 0x43, 0x20,
    0x20, 0x83, 0x4C, 0x20, 0x00, 0x83, 0x48, 0x20, 0x40, 0x93, 0x44, 0x20,
    0x00, 0x93, 0x48, 0x20, 0x00, 0x93, 0x4B, 0x20, 0x88, 0x50, 0x83, 0x48,
    0x20, 0x00, 0x83, 0x44, 0x20, 0x10, 0x83, 0x4B, 0x20, 0x10, 0x93, 0x46,
    0x20, 0x00, 0x93, 0x4A, 0x20, 0x10, 0x93, 0x4D, 0x20, 0x82, 0x10, 0x83,
    0x4D, 0x20, 0x40, 0x83, 0x4A, 0x20, 0x00, 0x83, 0x46, 0x20, 0x20, 0x93,
    0x48, 0x20, 0x00, 0x93, 0x4C, 0x20, 0x00, 0x93, 0x4F, 0x20, 0x8C, 0x10,
    0x93, 0x54, 0x18, 0x8A, 0x10, 0x83, 0x4F, 0x20, 0x00, 0x83, 0x4C, 0x20,
    0x00, 0x83, 0x48, 0x20, 0x10, 0x83, 0x54, 0x18, 0x8D, 0x60, 0xFF, 0x2F,
    0x00, 0x4D, 0x54, 0x72, 0x6B, 0x00, 0x00, 0x04, 0xD4, 0x00, 0xFF, 0x03,
    0x04, 0x62, 0x61, 0x73, 0x73, 0x88, 0x20, 0xB4, 0x79, 0x00, 0x60, 0xB4,
    0x07, 0x62, 0x00, 0xC4, 0x20, 0x81, 0x40, 0xB4, 0x0A, 0x47, 0x60, 0xB4,
    0x5B, 0x3D, 0xBC, 0x50, 0x94, 0x29, 0x67, 0x83, 0x30, 0x84, 0x29, 0x67,
    0x81, 0x20, 0x94, 0x29, 0x5D, 0x40, 0x84, 0x29, 0x5D, 0x70, 0x94, 0x29,
    0x61, 0x85, 0x40, 0x84, 0x29, 0x61, 0x50, 0x94, 0x29, 0x5A, 0x83, 0x40,
    0x84, 0x29, 0x5A, 0x70, 0x94, 0x29, 0x69, 0x50, 0x84, 0x29, 0x69, 0x70,
    0x94, 0x29, 0x60, 0x84, 0x60, 0x84, 0x29, 0x60, 0x81, 0x30, 0x94, 0x24,
    0x6C, 0x83, 0x60, 0x84, 0x24, 0x6C, 0x50, 0x94, 0x24, 0x5B, 0x40, 0x84,
    0x24, 0x5B, 0x81, 0x00, 0x94, 0x24, 0x6D, 0x85, 0x00, 0x84, 0x24, 0x6D,
    0x81, 0x10, 0x94, 0x24, 0x65, 0x83, 0x30, 0x84, 0x24, 0x65, 0x81, 0x00,
    0x94, 0x24, 0x5D, 0x40, 0x84, 0x24, 0x5D, 0x81, 0x00, 0x94, 0x24, 0x5C,
    0x85, 0x10, 0x84, 0x24, 0x5C, 0x70, 0x94, 0x2D, 0x68, 0x83, 0x60, 0x84,
    0x2D, 0x68, 0x60, 0x94, 0x2D, 0x6C, 0x40, 0x84, 0x2D, 0x6C, 0x81, 0x00,
    0x94, 0x2D, 0x6D, 0x85, 0x30, 0x84, 0x2D, 0x6D, 0x60, 0x94, 0x2B, 0x68,
    0x83, 0x30, 0x84, 0x2B, 0x68, 0x81, 0x00, 0x94, 0x2B, 0x5B, 0x70, 0x84,
    0x2B, 0x5B, 0x50, 0x94, 0x2B, 0x5E, 0x85, 0x30, 0x84, 0x2B, 0x5E, 0x60,
    0x94, 0x24, 0x67, 0x83, 0x70, 0x84, 0x24, 0x67, 0x50, 0x94, 0x24, 0x65,
    0x40, 0x84, 0x24, 0x65, 0x81, 0x00, 0x94, 0x24, 0x61, 0x85, 0x20, 0x84,
    0x24, 0x61, 0x60, 0x94, 0x24, 0x5F, 0x81, 0x00, 0x84, 0x24, 0x5F, 0x8B,
    0x00, 0x94, 0x29, 0x60, 0x83, 0x20, 0x84, 0x29, 0x60, 0x81, 0x10, 0x94,
    0x29, 0x69, 0x40, 0x84, 0x29, 0x69, 0x81, 0x00, 0x94, 0x29, 0x61, 0x84,
    0x00, 0x84, 0x29, 0x61, 0x40, 0x94, 0x29, 0x6A, 0x81, 0x10, 0x84, 0x29,
    0x6A, 0x30, 0x94, 0x29, 0x6C, 0x83, 0x50, 0x84, 0x29, 0x6C, 0x70, 0x94,
    0x29, 0x5C, 0x40, 0x84, 0x29, 0x5C, 0x81, 0x00, 0x94, 0x29, 0x64, 0x85,
    0x20, 0x84, 0x29, 0x64, 0x70, 0x94, 0x24, 0x5D, 0x83, 0x40, 0x84, 0x24,
    0x5D, 0x81, 0x10, 0x94, 0x24, 0x5F, 0x30, 0x84, 0x24, 0x5F, 0x81, 0x00,
    0x94, 0x24, 0x5E, 0x84, 0x70, 0x84, 0x24, 0x5E, 0x81, 0x10, 0x94, 0x24,
    0x61, 0x83, 0x60, 0x84, 0x24, 0x61, 0x70, 0x94, 0x24, 0x60, 0x40, 0x84,
    0x24, 0x60, 0x70, 0x94, 0x24, 0x6B, 0x84, 0x60, 0x84, 0x24, 0x6B, 0x81,
    0x30, 0x94, 0x26, 0x6D, 0x83, 0x30, 0x84, 0x26, 0x6D, 0x81, 0x00, 0x94,
    0x26, 0x66, 0x40, 0x84, 0x26, 0x66, 0x81, 0x00, 0x94, 0x26, 0x61, 0x84,
    0x50, 0x84, 0x26, 0x61, 0x81, 0x30, 0x94, 0x26, 0x6B, 0x83, 0x50, 0x84,
    0x26, 0x6B, 0x70, 0x94, 0x26, 0x60, 0x40, 0x84, 0x26, 0x60, 0x81, 0x00,
    0x94, 0x26, 0x6D, 0x84, 0x50, 0x84, 0x26, 0x6D, 0x81, 0x20, 0x94, 0x2B,
    0x5D, 0x83, 0x50, 0x84, 0x2B, 0x5D, 0x70, 0x94, 0x2B, 0x6A, 0x50, 0x84,
    0x2B, 0x6A, 0x70, 0x94, 0x2B, 0x5F, 0x84, 0x60, 0x84, 0x2B, 0x5F, 0x81,
    0x30, 0x94, 0x2B, 0x65, 0x40, 0x84, 0x2B, 0x65, 0x82, 0x40, 0x94, 0x30,
    0x5B, 0x89, 0x10, 0x84, 0x30, 0x5B, 0x85, 0x70, 0x94, 0x29, 0x5D, 0x83,
    0x50, 0x84, 0x29, 0x5D, 0x70, 0x94, 0x29, 0x5B, 0x40, 0x84, 0x29, 0x5B,
    0x81, 0x00, 0x94, 0x29, 0x61, 0x84, 0x00, 0x84, 0x29, 0x61, 0x40, 0x94,
    0x29, 0x5A, 0x81, 0x20, 0x84, 0x29, 0x5A, 0x20, 0x94, 0x2B, 0x5D, 0x83,
    0x60, 0x84, 0x2B, 0x5D, 0x50, 0x94, 0x2B, 0x68, 0x50, 0x84, 0x2B, 0x68,
    0x70, 0x94, 0x2B, 0x5A, 0x83, 0x60, 0x84, 0x2B, 0x5A, 0x60, 0x94, 0x2B,
    0x5C, 0x81, 0x30, 0x84, 0x2B, 0x5C, 0x10, 0x94, 0x30, 0x5B, 0x83, 0x50,
    0x84, 0x30, 0x5B, 0x81, 0x00, 0x94, 0x30, 0x68, 0x40, 0x84, 0x30, 0x68,
    0x70, 0x94, 0x30, 0x5A, 0x83, 0x70, 0x84, 0x30, 0x5A, 0x60, 0x94, 0x2F,
    0x5B, 0x81, 0x30, 0x84, 0x2F, 0x5B, 0x10, 0x94, 0x2D, 0x66, 0x83, 0x70,
    0x84, 0x2D, 0x66, 0x40, 0x94, 0x2D, 0x6D, 0x50, 0x84, 0x2D, 0x6D, 0x70,
    0x94, 0x2D, 0x6C, 0x82, 0x40, 0x84, 0x2D, 0x6C, 0x50, 0x94, 0x2B, 0x6C,
    0x82, 0x20, 0x84, 0x2B, 0x6C, 0x50, 0x94, 0x2A, 0x65, 0x83, 0x70, 0x84,
    0x2A, 0x65, 0x50, 0x94, 0x2A, 0x5D, 0x40, 0x84, 0x2A, 0x5D, 0x81, 0x00,
    0x94, 0x2A, 0x67, 0x85, 0x40, 0x84, 0x2A, 0x67, 0x50, 0x94, 0x29, 0x65,
    0x83, 0x30, 0x84, 0x29, 0x65, 0x81, 0x00, 0x94, 0x29, 0x69, 0x50, 0x84,
    0x29, 0x69, 0x70, 0x94, 0x29, 0x5E, 0x85, 0x30, 0x84, 0x29, 0x5E, 0x50,
    0x94, 0x24, 0x6C, 0x83, 0x50, 0x84, 0x24, 0x6C, 0x81, 0x00, 0x94, 0x24,
    0x67, 0x30, 0x84, 0x24, 0x67, 0x81, 0x00, 0x94, 0x24, 0x5F, 0x83, 0x60,
    0x84, 0x24, 0x5F, 0x70, 0x94, 0x2B, 0x68, 0x81, 0x20, 0x84, 0x2B, 0x68,
    0x20, 0x94, 0x24, 0x63, 0x50, 0x84, 0x24, 0x63, 0x8B, 0x20, 0x94, 0x29,
    0x64, 0x83, 0x60, 0x84, 0x29, 0x64, 0x60, 0x94, 0x29, 0x68, 0x40, 0x84,
    0x29, 0x68, 0x81, 0x00, 0x94, 0x29, 0x64, 0x84, 0x00, 0x84, 0x29, 0x64,
    0x40, 0x94, 0x29, 0x5C, 0x81, 0x10, 0x84, 0x29, 0x5C, 0x30, 0x94, 0x29,
    0x6B, 0x83, 0x50, 0x84, 0x29, 0x6B, 0x70, 0x94, 0x29, 0x5A, 0x40, 0x84,
    0x29, 0x5A, 0x81, 0x00, 0x94, 0x29, 0x5F, 0x85, 0x20, 0x84, 0x29, 0x5F,
    0x70, 0x94, 0x24, 0x67, 0x83, 0x30, 0x84, 0x24, 0x67, 0x81, 0x00, 0x94,
    0x24, 0x6C, 0x40, 0x84, 0x24, 0x6C, 0x81, 0x00, 0x94, 0x24, 0x62, 0x84,
    0x70, 0x84, 0x24, 0x62, 0x81, 0x10, 0x94, 0x24, 0x64, 0x83, 0x60, 0x84,
    0x24, 0x64, 0x60, 0x94, 0x24, 0x5F, 0x50, 0x84, 0x24, 0x5F, 0x70, 0x94,
    0x24, 0x6C, 0x84, 0x60, 0x84, 0x24, 0x6C, 0x81, 0x30, 0x94, 0x26, 0x61,
    0x83, 0x30, 0x84, 0x26, 0x61, 0x81, 0x00, 0x94, 0x26, 0x6D, 0x40, 0x84,
    0x26, 0x6D, 0x81, 0x00, 0x94, 0x26, 0x5B, 0x84, 0x50, 0x84, 0x26, 0x5B,
    0x81, 0x30, 0x94, 0x26, 0x63, 0x83, 0x50, 0x84, 0x26, 0x63, 0x70, 0x94,
    0x26, 0x60, 0x40, 0x84, 0x26, 0x60, 0x81, 0x00, 0x94, 0x26, 0x69, 0x84,
    0x50, 0x84, 0x26, 0x69, 0x81, 0x40, 0x94, 0x2B, 0x66, 0x83, 0x40, 0x84,
    0x2B, 0x66, 0x70, 0x94, 0x2B, 0x66, 0x50, 0x84, 0x2B, 0x66, 0x70, 0x94,
    0x2B, 0x5A, 0x84, 0x60, 0x84, 0x2B, 0x5A, 0x81, 0x20, 0x94, 0x2B, 0x67,
    0x50, 0x84, 0x2B, 0x67, 0x82, 0x40, 0x94, 0x30, 0x63, 0x89, 0x10, 0x84,
    0x30, 0x63, 0x85, 0x70, 0x94, 0x29, 0x6B, 0x83, 0x50, 0x84, 0x29, 0x6B,
    0x70, 0x94, 0x29, 0x68, 0x40, 0x84, 0x29, 0x68, 0x81, 0x00, 0x94, 0x29,
    0x63, 0x84, 0x00, 0x84, 0x29, 0x63, 0x40, 0x94, 0x29, 0x6D, 0x81, 0x20,
    0x84, 0x29, 0x6D, 0x20, 0x94, 0x2B, 0x65, 0x83, 0x50, 0x84, 0x2B, 0x65,
    0x60, 0x94, 0x2B, 0x5E, 0x50, 0x84, 0x2B, 0x5E, 0x70, 0x94, 0x2B, 0x66,
    0x83, 0x60, 0x84, 0x2B, 0x66, 0x60, 0x94, 0x2B, 0x5F, 0x81, 0x30, 0x84,
    0x2B, 0x5F, 0x10, 0x94, 0x30, 0x65, 0x83, 0x50, 0x84, 0x30, 0x65, 0x81,
    0x00, 0x94, 0x30, 0x62, 0x40, 0x84, 0x30, 0x62, 0x81, 0x00, 0x94, 0x30,
    0x65, 0x84, 0x30, 0x84, 0x30, 0x65, 0x10, 0x94, 0x2F, 0x66, 0x81, 0x30,
    0x84, 0x2F, 0x66, 0x10, 0x94, 0x2D, 0x6A, 0x83, 0x70, 0x84, 0x2D, 0x6A,
    0x40, 0x94, 0x2D, 0x66, 0x81, 0x10, 0x84, 0x2D, 0x66, 0x30, 0x94, 0x2D,
    0x65, 0x82, 0x40, 0x84, 0x2D, 0x65, 0x40, 0x94, 0x2B, 0x6B, 0x83, 0x00,
    0x84, 0x2B, 0x6B, 0x10, 0x94, 0x2A, 0x6C, 0x83, 0x60, 0x84, 0x2A, 0x6C,
    0x60, 0x94, 0x2A, 0x5A, 0x30, 0x84, 0x2A, 0x5A, 0x81, 0x00, 0x94, 0x2A,
    0x66, 0x85, 0x70, 0x84, 0x2A, 0x66, 0x20, 0x94, 0x29, 0x64, 0x83, 0x70,
    0x84, 0x29, 0x64, 0x40, 0x94, 0x29, 0x5C, 0x50, 0x84, 0x29, 0x5C, 0x70,
    0x94, 0x29, 0x60, 0x84, 0x70, 0x84, 0x29, 0x60, 0x81, 0x30, 0x94, 0x24,
    0x68, 0x83, 0x70, 0x84, 0x24, 0x68, 0x50, 0x94, 0x24, 0x60, 0x40, 0x84,
    0x24, 0x60, 0x70, 0x94, 0x24, 0x5B, 0x84, 0x30, 0x84, 0x24, 0x5B, 0x20,
    0x94, 0x24, 0x66, 0x81, 0x30, 0x84, 0x24, 0x66, 0x10, 0x94, 0x20, 0x5F,
    0x84, 0x00, 0x84, 0x20, 0x5F, 0x30, 0x94, 0x20, 0x5A, 0x81, 0x40, 0x84,
    0x20, 0x5A, 0x00, 0x94, 0x22, 0x68, 0x83, 0x60, 0x84, 0x22, 0x68, 0x50,
    0x94, 0x22, 0x68, 0x81, 0x30, 0x84, 0x22, 0x68, 0x10, 0x94, 0x24, 0x6C,
    0x84, 0x30, 0x84, 0x24, 0x6C, 0x30, 0x94, 0x24, 0x65, 0x50, 0x84, 0x24,
    0x65, 0x60, 0x94, 0x24, 0x5F, 0x83, 0x10, 0x84, 0x24, 0x5F, 0x00, 0x94,
    0x30, 0x60, 0x82, 0x70, 0x84, 0x30, 0x60, 0x10, 0x94, 0x24, 0x62, 0x89,
    0x40, 0x84, 0x24, 0x62, 0x8E, 0x30, 0xFF, 0x2F, 0x00, 0x4D, 0x54, 0x72,
    0x6B, 0x00, 0x00, 0x03, 0x20, 0x00, 0xFF, 0x03, 0x05, 0x64, 0x72, 0x75,
    0x6D, 0x73, 0x87, 0x40, 0xB9, 0x79, 0x00, 0x60, 0xB9, 0x07, 0x62, 0x00,
    0xC9, 0x00, 0x81, 0x40, 0xB9, 0x0A, 0x40, 0x60, 0xB9, 0x5B, 0x3D, 0xC0,
    0x40, 0x99, 0x2A, 0x61, 0x30, 0x89, 0x2A, 0x61, 0x85, 0x50, 0x99, 0x2A,
    0x5F, 0x30, 0x89, 0x2A, 0x5F, 0x85, 0x50, 0x99, 0x2A, 0x60, 0x30, 0x89,
    0x2A, 0x60, 0x85, 0x50, 0x99, 0x2A, 0x6C, 0x30, 0x89, 0x2A, 0x6C, 0x85,
    0x50, 0x99, 0x2A, 0x66, 0x30, 0x89, 0x2A, 0x66, 0x85, 0x50, 0x99, 0x2A,
    0x6B, 0x30, 0x89, 0x2A, 0x6B, 0x85, 0x50, 0x99, 0x2A, 0x5E, 0x30, 0x89,
    0x2A, 0x5E, 0x85, 0x50, 0x99, 0x2A, 0x5D, 0x30, 0x89, 0x2A, 0x5D, 0x85,
    0x50, 0x99, 0x2A, 0x5A, 0x30, 0x89, 0x2A, 0x5A, 0x85, 0x50, 0x99, 0x2A,
    0x5F, 0x30, 0x89, 0x2A, 0x5F, 0x85, 0x50, 0x99, 0x2A, 0x68, 0x30, 0x89,
    0x2A, 0x68, 0x85, 0x50, 0x99, 0x2A, 0x64, 0x30, 0x89, 0x2A, 0x64, 0x85,
    0x50, 0x99, 0x2A, 0x5D, 0x30, 0x89, 0x2A, 0x5D, 0x85, 0x50, 0x99, 0x2A,
    0x5B, 0x30, 0x89, 0x2A, 0x5B, 0x85, 0x50, 0x99, 0x2E, 0x6D, 0x30, 0x89,
    0x2E, 0x6D, 0x85, 0x50, 0x99, 0x2A, 0x67, 0x30, 0x89, 0x2A, 0x67, 0x85,
    0x50, 0x99, 0x2A, 0x62, 0x30, 0x89, 0x2A, 0x62, 0x85, 0x50, 0x99, 0x2A,
    0x5A, 0x30, 0x89, 0x2A, 0x5A, 0x85, 0x50, 0x99, 0x2A, 0x61, 0x30, 0x89,
    0x2A, 0x61, 0x85, 0x50, 0x99, 0x2A, 0x5A, 0x30, 0x89, 0x2A, 0x5A, 0x85,
    0x50, 0x99, 0x2A, 0x6D, 0x30, 0x89, 0x2A, 0x6D, 0x85, 0x50, 0x99, 0x2A,
    0x61, 0x30, 0x89, 0x2A, 0x61, 0x85, 0x50, 0x99, 0x2A, 0x62, 0x30, 0x89,
    0x2A, 0x62, 0x85, 0x50, 0x99, 0x2A, 0x61, 0x30, 0x89, 0x2A, 0x61, 0x85,
    0x50, 0x99, 0x2A, 0x63, 0x30, 0x89, 0x2A, 0x63, 0x85, 0x50, 0x99, 0x2A,
    0x5B, 0x30, 0x89, 0x2A, 0x5B, 0x85, 0x50, 0x99, 0x2A, 0x5D, 0x30, 0x89,
    0x2A, 0x5D, 0x85, 0x50, 0x99, 0x2A, 0x63, 0x30, 0x89, 0x2A, 0x63, 0x85,
    0x50, 0x99, 0x2A, 0x65, 0x30, 0x89, 0x2A, 0x65, 0x85, 0x50, 0x99, 0x2A,
    0x5A, 0x30, 0x89, 0x2A, 0x5A, 0x85, 0x50, 0x99, 0x2E, 0x67, 0x30, 0x89,
    0x2E, 0x67, 0x85, 0x50, 0x99, 0x2A, 0x66, 0x30, 0x89, 0x2A, 0x66, 0x85,
    0x50, 0x99, 0x2A, 0x5A, 0x30, 0x89, 0x2A, 0x5A, 0x85, 0x50, 0x99, 0x2A,
    0x62, 0x30, 0x89, 0x2A, 0x62, 0x85, 0x50, 0x99, 0x2A, 0x6A, 0x30, 0x89,
    0x2A, 0x6A, 0x85, 0x50, 0x99, 0x2A, 0x65, 0x30, 0x89, 0x2A, 0x65, 0x85,
    0x50, 0x99, 0x2A, 0x63, 0x30, 0x89, 0x2A, 0x63, 0x85, 0x50, 0x99, 0x2A,
    0x65, 0x30, 0x89, 0x2A, 0x65, 0x85, 0x50, 0x99, 0x2A, 0x61, 0x30, 0x89,
    0x2A, 0x61, 0x85, 0x50, 0x99, 0x2A, 0x63, 0x30, 0x89, 0x2A, 0x63, 0x85,
    0x50, 0x99, 0x2A, 0x61, 0x30, 0x89, 0x2A, 0x61, 0x85, 0x50, 0x99, 0x2A,
    0x6D, 0x30, 0x89, 0x2A, 0x6D, 0x85, 0x50, 0x99, 0x2A, 0x60, 0x30, 0x89,
    0x2A, 0x60, 0x85, 0x50, 0x99, 0x2A, 0x63, 0x30, 0x89, 0x2A, 0x63, 0x85,
    0x50, 0x99, 0x2A, 0x5E, 0x30, 0x89, 0x2A, 0x5E, 0x85, 0x50, 0x99, 0x2A,
    0x60, 0x30, 0x89, 0x2A, 0x60, 0x85, 0x50, 0x99, 0x2A, 0x5E, 0x30, 0x89,
    0x2A, 0x5E, 0x85, 0x50, 0x99, 0x2E, 0x5A, 0x30, 0x89, 0x2E, 0x5A, 0x85,
    0x50, 0x99, 0x2A, 0x69, 0x30, 0x89, 0x2A, 0x69, 0x85, 0x50, 0x99, 0x2A,
    0x5E, 0x30, 0x89, 0x2A, 0x5E, 0x85, 0x50, 0x99, 0x2A, 0x62, 0x30, 0x89,
    0x2A, 0x62, 0x85, 0x50, 0x99, 0x2A, 0x5D, 0x30, 0x89, 0x2A, 0x5D, 0x85,
    0x50, 0x99, 0x2A, 0x6D, 0x30, 0x89, 0x2A, 0x6D, 0x85, 0x50, 0x99, 0x2A,
    0x69, 0x30, 0x89, 0x2A, 0x69, 0x85, 0x50, 0x99, 0x2A, 0x64, 0x30, 0x89,
    0x2A, 0x64, 0x85, 0x50, 0x99, 0x2A, 0x5B, 0x30, 0x89, 0x2A, 0x5B, 0x85,
    0x50, 0x99, 0x2A, 0x69, 0x30, 0x89, 0x2A, 0x69, 0x85, 0x50, 0x99, 0x2A,
    0x66, 0x30, 0x89, 0x2A, 0x66, 0x85, 0x50, 0x99, 0x2A, 0x5F, 0x30, 0x89,
    0x2A, 0x5F, 0x85, 0x50, 0x99, 0x2A, 0x5A, 0x30, 0x89, 0x2A, 0x5A, 0x85,
    0x50, 0x99, 0x2A, 0x5E, 0x30, 0x89, 0x2A, 0x5E, 0x85, 0x50, 0x99, 0x2A,
    0x5C, 0x30, 0x89, 0x2A, 0x5C, 0x85, 0x50, 0x99, 0x2A, 0x65, 0x30, 0x89,
    0x2A, 0x65, 0x85, 0x50, 0x99, 0x2E, 0x63, 0x30, 0x89, 0x2E, 0x63, 0x85,
    0x50, 0x99, 0x2A, 0x6C, 0x30, 0x89, 0x2A, 0x6C, 0x85, 0x50, 0x99, 0x2A,
    0x5B, 0x30, 0x89, 0x2A, 0x5B, 0x85, 0x50, 0x99, 0x2A, 0x68, 0x30, 0x89,
    0x2A, 0x68, 0x85, 0x50, 0x99, 0x2A, 0x5F, 0x30, 0x89, 0x2A, 0x5F, 0x85,
    0x50, 0x99, 0x2A, 0x6D, 0x30, 0x89, 0x2A, 0x6D, 0x85, 0x50, 0x99, 0x2A,
    0x6D, 0x30, 0x89, 0x2A, 0x6D, 0x85, 0x50, 0x99, 0x2A, 0x5D, 0x30, 0x89,
    0x2A, 0x5D, 0x85, 0x50, 0x99, 0x2A, 0x66, 0x30, 0x89, 0x2A, 0x66, 0x85,
    0x50, 0x99, 0x2A, 0x5F, 0x30, 0x89, 0x2A, 0x5F, 0x85, 0x50, 0x99, 0x2A,
    0x64, 0x30, 0x89, 0x2A, 0x64, 0x85, 0x50, 0x99, 0x2A, 0x5A, 0x30, 0x89,
    0x2A, 0x5A, 0x85, 0x50, 0x99, 0x2A, 0x63, 0x30, 0x89, 0x2A, 0x63, 0x85,
    0x50, 0x99, 0x2A, 0x63, 0x30, 0x89, 0x2A, 0x63, 0x85, 0x50, 0x99, 0x2A,
    0x62, 0x30, 0x89, 0x2A, 0x62, 0x85, 0x50, 0x99, 0x2A, 0x5F, 0x30, 0x89,
    0x2A, 0x5F, 0x85, 0x50, 0x99, 0x2A, 0x5C, 0x30, 0x89, 0x2A, 0x5C, 0x85,
    0x50, 0x99, 0x2A, 0x67, 0x30, 0x89, 0x2A, 0x67, 0x85, 0x50, 0x99, 0x2A,
    0x5F, 0x30, 0x89, 0x2A, 0x5F, 0x85, 0x50, 0x99, 0x2A, 0x5A, 0x30, 0x89,
    0x2A, 0x5A, 0x85, 0x50, 0x99, 0x2A, 0x5B, 0x30, 0x89, 0x2A, 0x5B, 0x82,
    0x50, 0x99, 0x2E, 0x5A, 0x30, 0x89, 0x2E, 0x5A, 0x97, 0x50, 0xFF, 0x2F,
    0x00
};
    }
}